<?xml version="1.0" encoding="UTF-8"?>
<svg version="1.1" xmlns="http://www.w3.org/2000/svg" width="320" height="320">
<path d="M0 0 C105.6 0 211.2 0 320 0 C320 105.6 320 211.2 320 320 C214.4 320 108.8 320 0 320 C0 214.4 0 108.8 0 0 Z " fill="#FEFEFD" transform="translate(0,0)"/>
<path d="M0 0 C1.26006866 -0.00392761 1.26006866 -0.00392761 2.54559326 -0.00793457 C20.70470543 -0.01398343 38.89529173 1.31209396 55.875 8.3125 C55.875 8.9725 55.875 9.6325 55.875 10.3125 C53.71192255 11.75855178 51.54470774 13.10666348 49.3125 14.4375 C39.62283196 20.45374611 33.51680523 27.38708431 29.875 38.3125 C28.93257904 53.21954044 28.93257904 53.21954044 32.875 67.3125 C35.25445579 68.60074185 35.25445579 68.60074185 37.875 69.3125 C39.88251815 70.29732022 41.88434459 71.29402514 43.875 72.3125 C43.875 71.6525 43.875 70.9925 43.875 70.3125 C42.39 69.8175 42.39 69.8175 40.875 69.3125 C42.25 67.8125 42.25 67.8125 43.875 66.3125 C44.535 66.3125 45.195 66.3125 45.875 66.3125 C45.875 65.6525 45.875 64.9925 45.875 64.3125 C43.895 63.8175 43.895 63.8175 41.875 63.3125 C43.525 61.6625 45.175 60.0125 46.875 58.3125 C45.555 58.6425 44.235 58.9725 42.875 59.3125 C44.625 55.4375 44.625 55.4375 46.875 54.3125 C45.39 53.8175 45.39 53.8175 43.875 53.3125 C44.205 52.3225 44.535 51.3325 44.875 50.3125 C45.535 49.9825 46.195 49.6525 46.875 49.3125 C47.205 48.3225 47.535 47.3325 47.875 46.3125 C46.555 46.6425 45.235 46.9725 43.875 47.3125 C45.525 45.3325 47.175 43.3525 48.875 41.3125 C48.215 40.9825 47.555 40.6525 46.875 40.3125 C46.875 39.6525 46.875 38.9925 46.875 38.3125 C48.525 37.6525 50.175 36.9925 51.875 36.3125 C51.215 35.3225 50.555 34.3325 49.875 33.3125 C52.185 32.6525 54.495 31.9925 56.875 31.3125 C55.885 30.3225 55.885 30.3225 54.875 29.3125 C57.845 28.9825 60.815 28.6525 63.875 28.3125 C62.885 27.3225 62.885 27.3225 61.875 26.3125 C69.30357143 26.02678571 69.30357143 26.02678571 72.875 28.3125 C72.875 27.3225 72.875 26.3325 72.875 25.3125 C75.8469385 26.43701727 78.20940687 27.53543791 80.875 29.3125 C77.9541969 24.23284243 74.36837546 20.99541424 69.80078125 17.33984375 C67.57150513 14.99299932 67.19959591 13.48693793 66.875 10.3125 C72.27382424 14.90724404 77.58833087 19.58926273 82.875 24.3125 C80.96091549 20.92468785 78.94187351 18.17569393 76.25 15.375 C73.30774033 12.11064032 71.98829005 9.844102 71.875 5.3125 C72.56335938 6.01761719 73.25171875 6.72273438 73.9609375 7.44921875 C75.94169265 9.4334636 77.98231954 11.30923914 80.1015625 13.14453125 C80.6584375 13.63373047 81.2153125 14.12292969 81.7890625 14.62695312 C82.92835019 15.62448013 84.07686495 16.6115674 85.234375 17.58789062 C89.58718098 21.45986339 90.98603946 24.83451445 92.875 30.3125 C93.865 30.9725 94.855 31.6325 95.875 32.3125 C95.875 32.9725 95.875 33.6325 95.875 34.3125 C98.185 33.3225 100.495 32.3325 102.875 31.3125 C102.29937172 34.65114404 101.28436384 36.00352632 98.875 38.3125 C98.545 39.3025 98.215 40.2925 97.875 41.3125 C99.525 41.3125 101.175 41.3125 102.875 41.3125 C102.215 42.3025 101.555 43.2925 100.875 44.3125 C100.63392674 46.59898848 100.63392674 46.59898848 100.75 49 C100.76804688 49.80824219 100.78609375 50.61648437 100.8046875 51.44921875 C100.82789063 52.06410156 100.85109375 52.67898437 100.875 53.3125 C102.525 53.9725 104.175 54.6325 105.875 55.3125 C105.68777533 63.27805867 105.68777533 63.27805867 102.8125 66.9375 C98.69694138 68.8639317 96.28725441 68.20990768 91.875 67.3125 C91.875 65.9925 91.875 64.6725 91.875 63.3125 C90.24026484 60.18775373 90.24026484 60.18775373 87.75 59.625 C87.13125 59.521875 86.5125 59.41875 85.875 59.3125 C85.875 57.9925 85.875 56.6725 85.875 55.3125 C84.76125 54.879375 83.6475 54.44625 82.5 54 C78.875 52.3125 78.875 52.3125 76.875 49.3125 C73.79134129 49.0622843 73.79134129 49.0622843 70.875 49.3125 C70.62831764 53.2045994 71.16236103 55.45473213 73.125 58.8125 C73.58132812 59.59367187 74.03765625 60.37484375 74.5078125 61.1796875 C75.91310237 63.45820364 75.91310237 63.45820364 78 65.9375 C79.875 68.3125 79.875 68.3125 81.375 72 C82.99212866 75.57115913 83.4710205 75.89650033 86.875 77.3125 C86.76044319 79.22981918 86.63293742 81.1463675 86.5 83.0625 C86.43039063 84.12984375 86.36078125 85.1971875 86.2890625 86.296875 C85.89832355 89.14263413 85.22664593 90.83170131 83.875 93.3125 C83.95106836 95.45053054 83.95106836 95.45053054 84.875 97.3125 C90.15155274 100.83020183 96.49659216 101.46594567 102.75 101.0625 C105.80320569 100.43339265 105.80320569 100.43339265 108.21484375 99.25390625 C111.26673945 98.1738668 113.35349294 98.1979243 116.5625 98.5 C117.51511719 98.57605469 118.46773437 98.65210938 119.44921875 98.73046875 C121.875 99.3125 121.875 99.3125 123.875 102.3125 C122.885 102.3125 121.895 102.3125 120.875 102.3125 C120.545 102.9725 120.215 103.6325 119.875 104.3125 C118.555 104.3125 117.235 104.3125 115.875 104.3125 C115.545 105.6325 115.215 106.9525 114.875 108.3125 C114.215 107.6525 113.555 106.9925 112.875 106.3125 C110.41758463 105.81235047 110.41758463 105.81235047 107.875 106.3125 C105.87536981 107.75241037 105.87536981 107.75241037 104.875 110.3125 C104.63615128 113.03329845 104.73790703 115.57064068 104.875 118.3125 C103.555 117.6525 102.235 116.9925 100.875 116.3125 C100.875 114.0025 100.875 111.6925 100.875 109.3125 C96.73042498 109.05501416 92.58464568 108.83670276 88.4375 108.625 C87.27283203 108.55216797 86.10816406 108.47933594 84.90820312 108.40429688 C78.6404744 108.10415212 73.55273906 108.2010331 67.71484375 110.62695312 C65.08270602 111.60771782 62.64524634 111.52559587 59.875 111.3125 C60.8065502 112.93408738 61.74285827 114.55307627 62.69921875 116.16015625 C63.875 118.3125 63.875 118.3125 64.83203125 120.74609375 C65.95627229 123.37774412 66.87356099 125.25324164 68.875 127.3125 C72.06407328 128.03414666 74.86884067 128.12941559 78.1328125 128.01953125 C80.875 128.3125 80.875 128.3125 82.7421875 130.07421875 C83.875 132.3125 83.875 132.3125 83.875 136.3125 C86.845 136.3125 89.815 136.3125 92.875 136.3125 C92.875 136.9725 92.875 137.6325 92.875 138.3125 C113.995 138.3125 135.115 138.3125 156.875 138.3125 C155.875 143.3125 155.875 143.3125 154.16796875 144.82421875 C153.12576172 145.40623047 153.12576172 145.40623047 152.0625 146 C151.37542969 146.39574219 150.68835938 146.79148438 149.98046875 147.19921875 C149.28566406 147.56660156 148.59085938 147.93398437 147.875 148.3125 C147.19050781 148.69019531 146.50601563 149.06789062 145.80078125 149.45703125 C143.875 150.3125 143.875 150.3125 140.875 150.3125 C139.66871992 152.64464148 138.7095262 154.80892139 137.875 157.3125 C137.215 157.9725 136.555 158.6325 135.875 159.3125 C136.205 160.3025 136.535 161.2925 136.875 162.3125 C135.4375 165 135.4375 165 133.875 167.3125 C134.679375 167.621875 135.48375 167.93125 136.3125 168.25 C138.875 169.3125 138.875 169.3125 139.875 170.3125 C139.94705511 171.99858966 139.95886068 173.68750659 139.9375 175.375 C139.92847656 176.29410156 139.91945313 177.21320313 139.91015625 178.16015625 C139.89275391 179.22556641 139.89275391 179.22556641 139.875 180.3125 C140.535 180.6425 141.195 180.9725 141.875 181.3125 C140.555 182.6325 139.235 183.9525 137.875 185.3125 C136.885 184.9825 135.895 184.6525 134.875 184.3125 C134.875 183.6525 134.875 182.9925 134.875 182.3125 C134.2975 182.828125 133.72 183.34375 133.125 183.875 C130.875 185.3125 130.875 185.3125 128.6875 185.0625 C126.875 184.3125 126.875 184.3125 125.875 183.3125 C126.04039939 178.92941616 126.19971565 176.95484365 129.4375 173.875 C130.241875 173.359375 131.04625 172.84375 131.875 172.3125 C129.11223823 172.83518466 126.5489124 173.42119587 123.875 174.3125 C123.86082031 175.03695312 123.84664062 175.76140625 123.83203125 176.5078125 C123.50188243 183.20001838 122.89720387 186.75747789 117.875 191.3125 C115.42234106 193.02192896 114.57446021 193.4290767 111.625 192.9375 C111.0475 192.73125 110.47 192.525 109.875 192.3125 C110.125 190.4375 110.125 190.4375 110.875 188.3125 C112.9375 187.0625 112.9375 187.0625 114.875 186.3125 C114.875 187.3025 114.875 188.2925 114.875 189.3125 C115.535 188.9825 116.195 188.6525 116.875 188.3125 C116.875 186.6625 116.875 185.0125 116.875 183.3125 C115.76125 183.9003125 115.76125 183.9003125 114.625 184.5 C113.26375 184.9021875 113.26375 184.9021875 111.875 185.3125 C109.5625 183.9375 109.5625 183.9375 107.875 182.3125 C106.225 183.3025 104.575 184.2925 102.875 185.3125 C101.885 184.6525 100.895 183.9925 99.875 183.3125 C98.885 184.3025 97.895 185.2925 96.875 186.3125 C97.37 187.075625 97.865 187.83875 98.375 188.625 C99.86010494 192.27588297 100.03726731 194.19172501 99.96875 198.04296875 C99.95521484 199.03063232 99.94167969 200.0182959 99.92773438 201.03588867 C99.90163086 202.16281128 99.90163086 202.16281128 99.875 203.3125 C75.96534154 204.09612677 75.96534154 204.09612677 67.9609375 200.28515625 C62.38012914 197.6828692 56.21044091 198.09477296 50.1875 198.0625 C49.24455078 198.041875 48.30160156 198.02125 47.33007812 198 C39.91265894 197.95921694 32.77468 198.78039717 26.43212891 202.89868164 C23.47005159 204.53639309 21.71437005 204.66176319 18.35546875 204.60546875 C17.33388672 204.59580078 16.31230469 204.58613281 15.25976562 204.57617188 C14.20466797 204.55103516 13.14957031 204.52589844 12.0625 204.5 C10.98806641 204.48646484 9.91363281 204.47292969 8.80664062 204.45898438 C6.16224545 204.42372577 3.51888252 204.37444366 0.875 204.3125 C0.80367953 202.72722341 0.75300667 201.14100987 0.7109375 199.5546875 C0.66525635 198.22993408 0.66525635 198.22993408 0.61865234 196.87841797 C1.05684544 192.49231379 3.62588049 190.07132445 6.875 187.3125 C8.82932137 185.82915248 10.7609626 184.57085559 12.875 183.3125 C12.545 182.9825 12.215 182.6525 11.875 182.3125 C11.30042032 179.2110756 11.23706076 176.40522945 11.875 173.3125 C13.82973295 170.72365797 16.02855714 168.86676751 18.875 167.3125 C19.865 167.3125 20.855 167.3125 21.875 167.3125 C21.38 166.85875 20.885 166.405 20.375 165.9375 C18.875 164.3125 18.875 164.3125 18.875 162.3125 C20.16733607 160.93939293 21.49937146 159.60215176 22.875 158.3125 C17.71354492 155.20069027 13.59472773 154.85947582 7.75 154.75 C-15.74068588 153.85803417 -15.74068588 153.85803417 -23.671875 145.7265625 C-25.58917281 143.86080495 -27.62603348 143.19051526 -30.125 142.3125 C-30.46918477 131.4706799 -29.1588934 124.19580702 -21.92578125 115.7421875 C-16.50540004 110.17714933 -10.8325745 105.38463451 -4.5 100.875 C-3.80817627 100.37919434 -3.11635254 99.88338867 -2.40356445 99.37255859 C3.50241787 95.28460625 9.54580782 91.3125 16.875 91.3125 C16.875 90.3225 16.875 89.3325 16.875 88.3125 C11.82490405 87.37463918 11.82490405 87.37463918 6.875 88.3125 C6.235625 87.343125 5.59625 86.37375 4.9375 85.375 C3.1784741 82.55213731 3.1784741 82.55213731 1.875 81.3125 C-2.48213932 81.06586947 -5.32629266 81.19092614 -9.125 83.3125 C-9.59550781 82.74660156 -10.06601563 82.18070312 -10.55078125 81.59765625 C-11.17339844 80.86417969 -11.79601562 80.13070312 -12.4375 79.375 C-13.35982422 78.27865234 -13.35982422 78.27865234 -14.30078125 77.16015625 C-16.55167562 74.88034247 -18.25505915 74.36263218 -21.4296875 74.1796875 C-22.70199219 74.18355469 -22.70199219 74.18355469 -24 74.1875 C-24.84304687 74.18492187 -25.68609375 74.18234375 -26.5546875 74.1796875 C-29.16566769 74.31460137 -31.57787742 74.73734329 -34.125 75.3125 C-34.16367188 73.79269531 -34.16367188 73.79269531 -34.203125 72.2421875 C-34.25944181 70.89058403 -34.31678833 69.53902319 -34.375 68.1875 C-34.38917969 67.52234375 -34.40335938 66.8571875 -34.41796875 66.171875 C-34.66441836 61.14430292 -35.94371851 58.17960123 -39.125 54.3125 C-44.07874427 51.54983492 -48.57364865 50.79946064 -54.125 50.3125 C-53.64353516 49.05566406 -53.64353516 49.05566406 -53.15234375 47.7734375 C-51.19451403 41.17785905 -50.7865796 33.36511247 -52.96484375 26.76953125 C-55.50629976 22.34551524 -59.07476185 19.47696131 -63.2578125 16.63671875 C-65.09009975 15.33725144 -66.58571561 13.94261173 -68.125 12.3125 C-58.05953953 8.54273629 -48.13171221 5.44885142 -37.625 3.1875 C-36.84189453 3.01669922 -36.05878906 2.84589844 -35.25195312 2.66992188 C-23.56664398 0.22777983 -11.89603695 0.03544378 0 0 Z " fill="#790101" transform="translate(118.125,62.6875)"/>
<path d="M0 0 C3.41861232 3.28712723 5.84137688 8.38105674 6.12817383 13.11621094 C6.08544922 15.07747396 6.04272461 17.03873698 6 19 C8.93756119 19.0269501 11.87487555 19.04681474 14.8125 19.0625 C16.06256836 19.07506836 16.06256836 19.07506836 17.33789062 19.08789062 C18.54155273 19.09272461 18.54155273 19.09272461 19.76953125 19.09765625 C20.50792236 19.10289307 21.24631348 19.10812988 22.00708008 19.11352539 C24.6168215 18.96486316 26.67602792 18.16198604 29 17 C25.7 16.67 22.4 16.34 19 16 C19 15.67 19 15.34 19 15 C20.76949095 14.89184775 22.54087487 14.81433917 24.3125 14.75 C25.79169922 14.68039063 25.79169922 14.68039063 27.30078125 14.609375 C30 15 30 15 31.85546875 16.765625 C33 19 33 19 33 23 C35.97 23 38.94 23 42 23 C42 23.66 42 24.32 42 25 C63.12 25 84.24 25 106 25 C105 30 105 30 103.29296875 31.51171875 C102.59816406 31.89972656 101.90335938 32.28773438 101.1875 32.6875 C100.50042969 33.08324219 99.81335938 33.47898438 99.10546875 33.88671875 C98.41066406 34.25410156 97.71585938 34.62148437 97 35 C96.31550781 35.37769531 95.63101563 35.75539062 94.92578125 36.14453125 C93 37 93 37 90 37 C88.79371992 39.33214148 87.8345262 41.49642139 87 44 C86.01 44.99 86.01 44.99 85 46 C85.33 46.99 85.66 47.98 86 49 C84.5625 51.6875 84.5625 51.6875 83 54 C83.804375 54.309375 84.60875 54.61875 85.4375 54.9375 C88 56 88 56 89 57 C89.07205511 58.68608966 89.08386068 60.37500659 89.0625 62.0625 C89.05347656 62.98160156 89.04445313 63.90070313 89.03515625 64.84765625 C89.01775391 65.91306641 89.01775391 65.91306641 89 67 C89.66 67.33 90.32 67.66 91 68 C89.02 69.98 89.02 69.98 87 72 C86.01 71.67 85.02 71.34 84 71 C84 70.34 84 69.68 84 69 C83.4225 69.515625 82.845 70.03125 82.25 70.5625 C80 72 80 72 77.8125 71.75 C76 71 76 71 75 70 C75.16539939 65.61691616 75.32471565 63.64234365 78.5625 60.5625 C79.366875 60.046875 80.17125 59.53125 81 59 C78.23723823 59.52268466 75.6739124 60.10869587 73 61 C72.98582031 61.72445312 72.97164062 62.44890625 72.95703125 63.1953125 C72.62688243 69.88751838 72.02220387 73.44497789 67 78 C64.54734106 79.70942896 63.69946021 80.1165767 60.75 79.625 C60.1725 79.41875 59.595 79.2125 59 79 C59.25 77.125 59.25 77.125 60 75 C62.0625 73.75 62.0625 73.75 64 73 C64 73.99 64 74.98 64 76 C64.66 75.67 65.32 75.34 66 75 C66 73.35 66 71.7 66 70 C64.88625 70.5878125 64.88625 70.5878125 63.75 71.1875 C62.38875 71.5896875 62.38875 71.5896875 61 72 C58.6875 70.625 58.6875 70.625 57 69 C55.35 69.99 53.7 70.98 52 72 C50.515 71.01 50.515 71.01 49 70 C48.01 70.99 47.02 71.98 46 73 C46.495 73.763125 46.99 74.52625 47.5 75.3125 C48.98510494 78.96338297 49.16226731 80.87922501 49.09375 84.73046875 C49.07344727 86.21196411 49.07344727 86.21196411 49.05273438 87.72338867 C49.03533203 88.47467041 49.01792969 89.22595215 49 90 C25.09034154 90.78362677 25.09034154 90.78362677 17.0859375 86.97265625 C11.50512914 84.3703692 5.33544091 84.78227296 -0.6875 84.75 C-1.63044922 84.729375 -2.57339844 84.70875 -3.54492188 84.6875 C-10.96234106 84.64671694 -18.10032 85.46789717 -24.44287109 89.58618164 C-27.40494841 91.22389309 -29.16062995 91.34926319 -32.51953125 91.29296875 C-33.54111328 91.28330078 -34.56269531 91.27363281 -35.61523438 91.26367188 C-37.19788086 91.2259668 -37.19788086 91.2259668 -38.8125 91.1875 C-40.42415039 91.16719727 -40.42415039 91.16719727 -42.06835938 91.14648438 C-44.71275455 91.11122577 -47.35611748 91.06194366 -50 91 C-50.07132047 89.41472341 -50.12199333 87.82850987 -50.1640625 86.2421875 C-50.1945166 85.35901855 -50.2249707 84.47584961 -50.25634766 83.56591797 C-49.81815456 79.17981379 -47.24911951 76.75882445 -44 74 C-42.04567863 72.51665248 -40.1140374 71.25835559 -38 70 C-38.495 69.505 -38.495 69.505 -39 69 C-39.57457968 65.8985756 -39.63793924 63.09272945 -39 60 C-37.04526705 57.41115797 -34.84644286 55.55426751 -32 54 C-31.01 54 -30.02 54 -29 54 C-29.495 53.54625 -29.99 53.0925 -30.5 52.625 C-32 51 -32 51 -32 49 C-30.1875 47.3125 -30.1875 47.3125 -28 46 C-25 47 -25 47 -23.8125 49.3125 C-22.65840526 54.5503146 -22.84443251 59.65884952 -23 65 C-20.95101713 60.78103134 -20.78792003 57.34627854 -20.875 52.6875 C-20.89304688 51.43324219 -20.91109375 50.17898437 -20.9296875 48.88671875 C-20.95289063 47.93410156 -20.97609375 46.98148438 -21 46 C-22.98 45.34 -24.96 44.68 -27 44 C-27 43.34 -27 42.68 -27 42 C-19.96517526 41.76331431 -13.8165735 42.2120463 -7 44 C-7 44.66 -7 45.32 -7 46 C-6.38125 46.144375 -5.7625 46.28875 -5.125 46.4375 C-3 47 -3 47 -1 48 C-1 48.66 -1 49.32 -1 50 C0.32 50.66 1.64 51.32 3 52 C4.65 50.68 6.3 49.36 8 48 C7.505 45.03 7.505 45.03 7 42 C6.21625 41.79375 5.4325 41.5875 4.625 41.375 C0.5271056 39.82062626 -2.86488042 37.71131739 -6.53515625 35.33984375 C-11.64621057 32.56156858 -17.03366725 32.85376578 -22.703125 32.82421875 C-24.42318924 32.80101462 -26.14324136 32.77689705 -27.86328125 32.75195312 C-30.55330477 32.71693825 -33.24288237 32.68753562 -35.93310547 32.67407227 C-38.54448458 32.65847406 -41.15458864 32.61819249 -43.765625 32.57421875 C-44.95203583 32.57708138 -44.95203583 32.57708138 -46.16241455 32.58000183 C-51.92423444 32.45563153 -57.16162982 31.27597814 -62 28 C-63.84366962 25.17542431 -64 23.9832948 -64 20.5 C-62.69333568 15.92667487 -61.0569283 15.34379385 -57 13 C-49.8875121 10.01308513 -42.53307607 7.65727674 -35 6 C-35.75 10.75 -35.75 10.75 -38 13 C-37.34 13 -36.68 13 -36 13 C-35.34 12.34 -34.68 11.68 -34 11 C-33.34 11.66 -32.68 12.32 -32 13 C-29.59705225 12.12043044 -27.20396336 11.22236839 -24.8125 10.3125 C-24.13896484 10.06822266 -23.46542969 9.82394531 -22.77148438 9.57226562 C-18.14565099 7.78962739 -15.44189684 5.66492693 -12 2 C-8.05681397 0.52130524 -4.21312721 -0.70218787 0 0 Z M-19 44 C-19.33 44.66 -19.66 45.32 -20 46 C-19.01 47.485 -19.01 47.485 -18 49 C-18 47.35 -18 45.7 -18 44 C-18.33 44 -18.66 44 -19 44 Z " fill="#332827" transform="translate(169,176)"/>
<path d="M0 0 C7.03482474 -0.23668569 13.1834265 0.2120463 20 2 C20 2.66 20 3.32 20 4 C20.928125 4.2165625 20.928125 4.2165625 21.875 4.4375 C24 5 24 5 26 6 C26 6.66 26 7.32 26 8 C27.32 8.66 28.64 9.32 30 10 C30.7425 9.319375 31.485 8.63875 32.25 7.9375 C35 6 35 6 37.3125 6.25 C37.869375 6.4975 38.42625 6.745 39 7 C39 7.66 39 8.32 39 9 C39.5775 8.484375 40.155 7.96875 40.75 7.4375 C43 6 43 6 44.9375 6.0625 C47.81320554 7.36963888 49.74522039 8.76743497 52 11 C52.3828125 14.1640625 52.3828125 14.1640625 52.125 17.625 C51.82574959 21.00350405 51.82574959 21.00350405 52 24 C52.99 24.66 53.98 25.32 55 26 C55.04125 24.72125 55.0825 23.4425 55.125 22.125 C55.14820313 21.40570313 55.17140625 20.68640625 55.1953125 19.9453125 C55.18331689 17.76136355 55.18331689 17.76136355 53 16 C54.32 14.68 55.64 13.36 57 12 C58.32 12.66 59.64 13.32 61 14 C61.66 13.34 62.32 12.68 63 12 C65.13069085 12.35511514 67.07147732 13.02312502 69.125 13.6875 C69.74375 13.790625 70.3625 13.89375 71 14 C71.66 13.34 72.32 12.68 73 12 C79.46153846 12.46153846 79.46153846 12.46153846 82 15 C82.1953125 17.3828125 82.1953125 17.3828125 82.125 20.125 C82.10695313 21.03507812 82.08890625 21.94515625 82.0703125 22.8828125 C82.04710937 23.58148438 82.02390625 24.28015625 82 25 C82.66 25 83.32 25 84 25 C83 28 83 28 80.9375 29.1875 C80.298125 29.455625 79.65875 29.72375 79 30 C78.01 29.34 77.02 28.68 76 28 C75.01 28.99 74.02 29.98 73 31 C73.495 31.763125 73.99 32.52625 74.5 33.3125 C75.98510494 36.96338297 76.16226731 38.87922501 76.09375 42.73046875 C76.07344727 44.21196411 76.07344727 44.21196411 76.05273438 45.72338867 C76.03533203 46.47467041 76.01792969 47.22595215 76 48 C52.09034154 48.78362677 52.09034154 48.78362677 44.0859375 44.97265625 C38.50512914 42.3703692 32.33544091 42.78227296 26.3125 42.75 C25.36955078 42.729375 24.42660156 42.70875 23.45507812 42.6875 C16.03765894 42.64671694 8.89968 43.46789717 2.55712891 47.58618164 C-0.40494841 49.22389309 -2.16062995 49.34926319 -5.51953125 49.29296875 C-6.54111328 49.28330078 -7.56269531 49.27363281 -8.61523438 49.26367188 C-9.67033203 49.23853516 -10.72542969 49.21339844 -11.8125 49.1875 C-13.42415039 49.16719727 -13.42415039 49.16719727 -15.06835938 49.14648438 C-17.71275455 49.11122577 -20.35611748 49.06194366 -23 49 C-23.07132047 47.41472341 -23.12199333 45.82850987 -23.1640625 44.2421875 C-23.1945166 43.35901855 -23.2249707 42.47584961 -23.25634766 41.56591797 C-22.81815456 37.17981379 -20.24911951 34.75882445 -17 32 C-15.04567863 30.51665248 -13.1140374 29.25835559 -11 28 C-11.33 27.67 -11.66 27.34 -12 27 C-12.57457968 23.8985756 -12.63793924 21.09272945 -12 18 C-10.04526705 15.41115797 -7.84644286 13.55426751 -5 12 C-4.01 12 -3.02 12 -2 12 C-2.495 11.54625 -2.99 11.0925 -3.5 10.625 C-5 9 -5 9 -5 7 C-3.1875 5.3125 -3.1875 5.3125 -1 4 C2 5 2 5 3.1875 7.3125 C4.34159474 12.5503146 4.15556749 17.65884952 4 23 C6.04898287 18.78103134 6.21207997 15.34627854 6.125 10.6875 C6.10695312 9.43324219 6.08890625 8.17898437 6.0703125 6.88671875 C6.04710937 5.93410156 6.02390625 4.98148438 6 4 C4.02 3.34 2.04 2.68 0 2 C0 1.34 0 0.68 0 0 Z M8 2 C7.67 2.66 7.34 3.32 7 4 C7.99 5.485 7.99 5.485 9 7 C9 5.35 9 3.7 9 2 C8.67 2 8.34 2 8 2 Z " fill="#332928" transform="translate(142,218)"/>
<path d="M0 0 C7.03482474 -0.23668569 13.1834265 0.2120463 20 2 C20 2.66 20 3.32 20 4 C20.61875 4.144375 21.2375 4.28875 21.875 4.4375 C24 5 24 5 26 6 C26 6.66 26 7.32 26 8 C27.32 8.66 28.64 9.32 30 10 C30.7425 9.319375 31.485 8.63875 32.25 7.9375 C35 6 35 6 37.3125 6.25 C37.869375 6.4975 38.42625 6.745 39 7 C39 7.66 39 8.32 39 9 C39.5775 8.484375 40.155 7.96875 40.75 7.4375 C43 6 43 6 44.9375 6.0625 C47.99418277 7.45190126 49.74498382 8.43178713 52 11 C53.14677575 15.49950207 52.93970702 19.31073196 50.66796875 23.39453125 C47.77385469 27.02034006 45.82760982 28.76153615 41.3125 30.0625 C38.62565737 30.01180486 36.51282993 29.90461878 34 29 C34 30.32 34 31.64 34 33 C30.50076372 36.94785632 28.31275523 37.86045515 23.03125 38.421875 C15.77420046 38.66734468 8.36225448 38.84386208 2 35 C1 32.3125 1 32.3125 1 30 C0.01 29.67 -0.98 29.34 -2 29 C-2 24.71 -2 20.42 -2 16 C-2.66 16 -3.32 16 -4 16 C-3.67 14.02 -3.34 12.04 -3 10 C-3.66 9.67 -4.32 9.34 -5 9 C-5 8.34 -5 7.68 -5 7 C-3.1875 5.3125 -3.1875 5.3125 -1 4 C2 5 2 5 3.1875 7.3125 C4.34159474 12.5503146 4.15556749 17.65884952 4 23 C6.04898287 18.78103134 6.21207997 15.34627854 6.125 10.6875 C6.10695312 9.43324219 6.08890625 8.17898437 6.0703125 6.88671875 C6.04710937 5.93410156 6.02390625 4.98148438 6 4 C4.02 3.34 2.04 2.68 0 2 C0 1.34 0 0.68 0 0 Z M8 2 C7.67 2.66 7.34 3.32 7 4 C7.99 5.485 7.99 5.485 9 7 C9 5.35 9 3.7 9 2 C8.67 2 8.34 2 8 2 Z " fill="#322525" transform="translate(142,218)"/>
<path d="M0 0 C-0.45375 0.598125 -0.9075 1.19625 -1.375 1.8125 C-2.63295913 3.50590652 -3.82984724 5.24477086 -5 7 C-4.505 8.485 -4.505 8.485 -4 10 C-5.4375 12.6875 -5.4375 12.6875 -7 15 C-6.195625 15.309375 -5.39125 15.61875 -4.5625 15.9375 C-2 17 -2 17 -1 18 C-0.92794489 19.68608966 -0.91613932 21.37500659 -0.9375 23.0625 C-0.94652344 23.98160156 -0.95554687 24.90070313 -0.96484375 25.84765625 C-0.97644531 26.55792969 -0.98804688 27.26820313 -1 28 C-0.34 28.33 0.32 28.66 1 29 C-0.32 30.32 -1.64 31.64 -3 33 C-3.99 32.67 -4.98 32.34 -6 32 C-6 31.34 -6 30.68 -6 30 C-6.86625 30.7734375 -6.86625 30.7734375 -7.75 31.5625 C-10 33 -10 33 -12.1875 32.75 C-14 32 -14 32 -15 31 C-14.83460061 26.61691616 -14.67528435 24.64234365 -11.4375 21.5625 C-10.633125 21.046875 -9.82875 20.53125 -9 20 C-11.76276177 20.52268466 -14.3260876 21.10869587 -17 22 C-17.01417969 22.72445312 -17.02835938 23.44890625 -17.04296875 24.1953125 C-17.37311757 30.88751838 -17.97779613 34.44497789 -23 39 C-25.45265894 40.70942896 -26.30053979 41.1165767 -29.25 40.625 C-29.8275 40.41875 -30.405 40.2125 -31 40 C-30.75 38.125 -30.75 38.125 -30 36 C-27.9375 34.75 -27.9375 34.75 -26 34 C-26 34.99 -26 35.98 -26 37 C-25.34 36.67 -24.68 36.34 -24 36 C-24 34.35 -24 32.7 -24 31 C-25.65 31.66 -27.3 32.32 -29 33 C-31.51274342 31.39612122 -33.18709807 30.30686678 -35 28 C-35.54898367 25.35073789 -35.68706166 22.90995651 -35.69921875 20.20703125 C-35.84810547 19.11455078 -35.84810547 19.11455078 -36 18 C-39.22373677 15.85084215 -40.26703674 15.61713197 -44 16 C-44.66 16.66 -45.32 17.32 -46 18 C-48.11463022 17.64756163 -50.03072093 16.98975969 -52.0625 16.3125 C-54.32110278 15.72287634 -54.32110278 15.72287634 -57 18 C-57.33 17.34 -57.66 16.68 -58 16 C-59.98 16.99 -59.98 16.99 -62 18 C-62 18.66 -62 19.32 -62 20 C-61.67 20.33 -61.34 20.66 -61 21 C-60.92820036 22.51928038 -60.91607993 24.04167482 -60.9375 25.5625 C-60.94652344 26.38878906 -60.95554688 27.21507812 -60.96484375 28.06640625 C-60.97644531 28.70449219 -60.98804688 29.34257812 -61 30 C-62.65 29.01 -64.3 28.02 -66 27 C-65.99397135 25.08288997 -65.9437519 23.16588632 -65.875 21.25 C-65.85179687 20.18265625 -65.82859375 19.1153125 -65.8046875 18.015625 C-65 15 -65 15 -62.6640625 12.640625 C-58.00779221 9.98266495 -52.70542032 10.49596698 -47.5 10.5 C-37.89703257 10.28897732 -30.04078422 9.39404856 -21 6 C-18.45718326 5.05507995 -15.91398476 4.11120353 -13.37036133 3.16845703 C-11.64825332 2.52376962 -9.93042576 1.86750813 -8.2175293 1.19873047 C-7.43933838 0.8998291 -6.66114746 0.60092773 -5.859375 0.29296875 C-5.16295898 0.0199292 -4.46654297 -0.25311035 -3.74902344 -0.53442383 C-2 -1 -2 -1 0 0 Z " fill="#EDEDED" transform="translate(259,215)"/>
<path d="M0 0 C0.99 0.33 1.98 0.66 3 1 C2.34 2.32 1.68 3.64 1 5 C1.48082031 5.33773437 1.96164063 5.67546875 2.45703125 6.0234375 C4.76394525 8.97862353 4.6576746 12.01612654 4.6875 15.625 C4.69458984 16.33978516 4.70167969 17.05457031 4.70898438 17.79101562 C4.53966645 22.83852033 3.47754993 25.64699778 0 29.5 C-1.29699969 30.70693027 -2.61895106 31.89022853 -4 33 C-5.485 32.505 -5.485 32.505 -7 32 C-6.03320312 31.00419922 -6.03320312 31.00419922 -5.046875 29.98828125 C-2.57131059 26.37414618 -2.33925904 23.42730432 -2.25 19.1875 C-2.20552734 18.14819336 -2.20552734 18.14819336 -2.16015625 17.08789062 C-2.09000372 15.39253787 -2.04267338 13.69626688 -2 12 C-2.928125 12.20625 -3.85625 12.4125 -4.8125 12.625 C-8 13 -8 13 -11 11 C-11 13.64 -11 16.28 -11 19 C-10.34 19.33 -9.68 19.66 -9 20 C-10.28965176 21.37562854 -11.62689293 22.70766393 -13 24 C-13.66 24 -14.32 24 -15 24 C-16.26237731 21.47524538 -16.09856404 19.68799534 -16.0625 16.875 C-16.05347656 15.96492187 -16.04445313 15.05484375 -16.03515625 14.1171875 C-16.02355469 13.41851562 -16.01195313 12.71984375 -16 12 C-16.99 12 -17.98 12 -19 12 C-19.08636719 12.74507812 -19.17273438 13.49015625 -19.26171875 14.2578125 C-20.14458532 17.53703119 -21.26686875 18.67413885 -23.8125 20.875 C-24.84310547 21.79925781 -24.84310547 21.79925781 -25.89453125 22.7421875 C-28 24 -28 24 -30.15234375 23.8359375 C-32.9877581 22.55310733 -33.73564214 20.78158729 -35 18 C-35.4027702 14.82882195 -35.39642429 13.51741731 -33.42578125 10.9453125 C-32.72839844 10.34460938 -32.03101562 9.74390625 -31.3125 9.125 C-30.62800781 8.50882813 -29.94351563 7.89265625 -29.23828125 7.2578125 C-27 6 -27 6 -24.375 6.23828125 C-22.09816441 6.96851635 -20.08805762 7.83996799 -18 9 C-17.01 8.01 -16.02 7.02 -15 6 C-13.68 6.66 -12.36 7.32 -11 8 C-10.34 7.34 -9.68 6.68 -9 6 C-8.01 6 -7.02 6 -6 6 C-6 5.34 -6 4.68 -6 4 C-5.34 4 -4.68 4 -4 4 C-3.67 3.67 -3.34 3.34 -3 3 C-2 2 -1 1 0 0 Z " fill="#191919" transform="translate(97,224)"/>
<path d="M0 0 C3.10661763 2.98713234 4.48344791 7.02807785 6 11 C6 11.99 6 12.98 6 14 C3.36 14.33 0.72 14.66 -2 15 C-1.01 15.33 -0.02 15.66 1 16 C1.99 16.33 2.98 16.66 4 17 C4 17.99 4 18.98 4 20 C-1.94 20 -7.88 20 -14 20 C-14.33 19.01 -14.66 18.02 -15 17 C-13.35 16.67 -11.7 16.34 -10 16 C-15.52393499 15.07934417 -20.25154074 15.07713593 -25.80078125 15.84375 C-28 16 -28 16 -31 15 C-31 14.34 -31 13.68 -31 13 C-30.04738281 12.62488281 -29.09476563 12.24976563 -28.11328125 11.86328125 C-26.84608439 11.34701586 -25.57917218 10.83005137 -24.3125 10.3125 C-23.68666016 10.06822266 -23.06082031 9.82394531 -22.41601562 9.57226562 C-17.97615626 7.735884 -15.28163927 5.44600462 -12 2 C-8.05681397 0.52130524 -4.21312721 -0.70218787 0 0 Z " fill="#F9F7F6" transform="translate(169,176)"/>
<path d="M0 0 C0.33 0.66 0.66 1.32 1 2 C0 5 0 5 -2 7 C-1.34 7 -0.68 7 0 7 C0.66 6.34 1.32 5.68 2 5 C4 7 4 7 5 9 C10.10439986 9.09280727 14.87969893 8.83961708 19.921875 8.0234375 C22.43906824 7.9950481 23.85590722 8.7347921 26 10 C25.67 10.66 25.34 11.32 25 12 C24.01 12.33 23.02 12.66 22 13 C20.33289654 14.49985609 20.33289654 14.49985609 19 16 C18.505 15.01 18.505 15.01 18 14 C17.34 14.33 16.68 14.66 16 15 C13.46782256 15.10335418 10.96978219 15.14036379 8.4375 15.125 C7.6655127 15.12306641 6.89352539 15.12113281 6.09814453 15.11914062 C-4.94173001 15.04153167 -15.97293295 14.50378824 -27 14 C-26.21533203 10.16357422 -26.21533203 10.16357422 -24.27734375 8.69140625 C-16.44671404 4.91335619 -8.32581543 2.42750202 0 0 Z " fill="#7C0708" transform="translate(133,182)"/>
<path d="M0 0 C0.86625 0.3403125 0.86625 0.3403125 1.75 0.6875 C1.75 1.3475 1.75 2.0075 1.75 2.6875 C2.61625 1.9140625 2.61625 1.9140625 3.5 1.125 C5.75 -0.3125 5.75 -0.3125 7.6875 -0.25 C10.74418277 1.13940126 12.49498382 2.11928713 14.75 4.6875 C15.89677575 9.18700207 15.68970702 12.99823196 13.41796875 17.08203125 C10.54352505 20.68319661 8.62445317 22.44627154 4.125 23.6875 C1.33333333 23.6875 -1.45833333 23.6875 -4.25 23.6875 C-3.755 14.7775 -3.755 14.7775 -3.25 5.6875 C-4.24 5.6875 -5.23 5.6875 -6.25 5.6875 C-6.25 4.6975 -6.25 3.7075 -6.25 2.6875 C-4.08146295 0.51896295 -3.10906228 -0.43181421 0 0 Z " fill="#080606" transform="translate(179.25,224.3125)"/>
<path d="M0 0 C0.66 0.99 1.32 1.98 2 3 C1.01 3 0.02 3 -1 3 C-1.33 3.66 -1.66 4.32 -2 5 C-3.32 5 -4.64 5 -6 5 C-6.33 6.32 -6.66 7.64 -7 9 C-7.66 8.34 -8.32 7.68 -9 7 C-11.45741537 6.49985047 -11.45741537 6.49985047 -14 7 C-15.99963019 8.43991037 -15.99963019 8.43991037 -17 11 C-17.23884872 13.72079845 -17.13709297 16.25814068 -17 19 C-18.32 18.34 -19.64 17.68 -21 17 C-21 14.69 -21 12.38 -21 10 C-25.24961786 9.80305995 -29.49970027 9.61907926 -33.75 9.4375 C-34.9565625 9.38142578 -36.163125 9.32535156 -37.40625 9.26757812 C-38.56640625 9.21923828 -39.7265625 9.17089844 -40.921875 9.12109375 C-41.99018555 9.0739624 -43.05849609 9.02683105 -44.15917969 8.97827148 C-46.66694407 8.99745256 -48.62203427 9.25500441 -51 10 C-50.34 9.67 -49.68 9.34 -49 9 C-49 8.34 -49 7.68 -49 7 C-44.05 6.67 -39.1 6.34 -34 6 C-34.66 4.68 -35.32 3.36 -36 2 C-35 1 -35 1 -31.4375 0.875 C-28.53536109 0.89051946 -25.85201754 1.17357209 -23 1.6875 C-19.86117405 2.14461058 -18.07014531 1.79748394 -15.1875 0.5 C-10.26442492 -1.63365878 -5.14290513 -1.36797813 0 0 Z " fill="#741214" transform="translate(240,162)"/>
<path d="M0 0 C0 0.66 0 1.32 0 2 C-0.66 2 -1.32 2 -2 2 C-1.91298828 3.41152344 -1.91298828 3.41152344 -1.82421875 4.8515625 C-1.40967506 16.29296842 -1.40967506 16.29296842 -4.25 19.75 C-8.58888889 23.3 -8.58888889 23.3 -11 24 C-13.25 23.625 -13.25 23.625 -15 23 C-14.75 21.125 -14.75 21.125 -14 19 C-11.9375 17.75 -11.9375 17.75 -10 17 C-10 17.99 -10 18.98 -10 20 C-9.34 19.67 -8.68 19.34 -8 19 C-8 17.35 -8 15.7 -8 14 C-9.65 14.66 -11.3 15.32 -13 16 C-14.95143557 14.3703437 -15.90331891 13.43023084 -16.46875 10.9140625 C-16.5294606 6.4670107 -16.48302008 4.61013062 -13.625 1 C-8.63227467 -2.80398121 -5.78715739 -1.50037414 0 0 Z " fill="#0B0B0B" transform="translate(243,232)"/>
<path d="M0 0 C1.81358154 0.47505678 3.62584179 0.95516042 5.4375 1.4375 C6.95150391 1.83775391 6.95150391 1.83775391 8.49609375 2.24609375 C11 3 11 3 12 4 C14.57084173 4.14798407 17.11814429 4.23511524 19.69140625 4.28125 C20.47007553 4.29965942 21.24874481 4.31806885 22.05101013 4.33703613 C24.55476089 4.39595785 27.05858404 4.44861053 29.5625 4.5 C32.04141199 4.55163897 34.52024027 4.60479792 36.99900818 4.66296387 C38.54275556 4.69915016 40.08659465 4.73167976 41.63050842 4.7598877 C46.48341509 4.87305117 51.19140957 5.32977536 56 6 C56 6.66 56 7.32 56 8 C56.71027344 8.04898438 57.42054688 8.09796875 58.15234375 8.1484375 C59.53099609 8.26058594 59.53099609 8.26058594 60.9375 8.375 C61.85402344 8.44460937 62.77054688 8.51421875 63.71484375 8.5859375 C64.84599609 8.79089844 64.84599609 8.79089844 66 9 C66.495 9.99 66.495 9.99 67 11 C67.804375 11.474375 68.60875 11.94875 69.4375 12.4375 C72 14 72 14 74 17 C73.505 18.485 73.505 18.485 73 20 C71.62437146 18.71034824 70.29233607 17.37310707 69 16 C69 15.34 69 14.68 69 14 C67.02 13.34 65.04 12.68 63 12 C63 11.34 63 10.68 63 10 C56.4 9.34 49.8 8.68 43 8 C44.79197395 10.13904557 44.79197395 10.13904557 47.0625 10.5 C47.701875 10.665 48.34125 10.83 49 11 C50.40248912 13.80497823 50.16979056 16.18501365 50.1875 19.3125 C50.20167969 20.44300781 50.21585938 21.57351562 50.23046875 22.73828125 C50.00265899 25.96236847 49.48285228 28.14355823 48 31 C47.01 31.495 47.01 31.495 46 32 C46.03480469 31.05898437 46.06960937 30.11796875 46.10546875 29.1484375 C46.14607422 27.28058594 46.14607422 27.28058594 46.1875 25.375 C46.22230469 24.14523438 46.25710937 22.91546875 46.29296875 21.6484375 C45.96404114 17.55219236 45.33367244 15.37980147 43 12 C37.64948953 7.98543882 33.37361232 7.42917493 26.8125 7.375 C25.1274449 7.32260138 23.44253479 7.2653111 21.7578125 7.203125 C20.94473633 7.17412109 20.13166016 7.14511719 19.29394531 7.11523438 C12.08263551 6.75298041 5.21560539 5.79842552 -1 2 C-0.67 1.34 -0.34 0.68 0 0 Z M51 10 C51.33 10 51.66 10 52 10 C52 11.65 52 13.3 52 15 C51.34 13.68 50.68 12.36 50 11 C50.33 10.67 50.66 10.34 51 10 Z " fill="#69080A" transform="translate(99,210)"/>
<path d="M0 0 C1.32 0.66 2.64 1.32 4 2 C4.66 1.34 5.32 0.68 6 0 C8.13069085 0.35511514 10.07147732 1.02312502 12.125 1.6875 C13.053125 1.8421875 13.053125 1.8421875 14 2 C14.66 1.34 15.32 0.68 16 0 C22.46153846 0.46153846 22.46153846 0.46153846 25 3 C25.1953125 5.3828125 25.1953125 5.3828125 25.125 8.125 C25.10695312 9.03507813 25.08890625 9.94515625 25.0703125 10.8828125 C25.04710937 11.58148438 25.02390625 12.28015625 25 13 C25.66 13 26.32 13 27 13 C26 16 26 16 23.9375 17.1875 C23.298125 17.455625 22.65875 17.72375 22 18 C20.5819569 15.54205863 19.95400669 13.71254179 19.5 10.875 C19.26313679 7.87947452 19.26313679 7.87947452 17 6 C17.33 5.67 17.66 5.34 18 5 C16.7625 5.165 15.525 5.33 14.25 5.5 C6.94736842 6.47368421 6.94736842 6.47368421 4 5 C4 7.64 4 10.28 4 13 C4.66 13 5.32 13 6 13 C6 13.66 6 14.32 6 15 C2.53846154 18 2.53846154 18 0 18 C-0.12117187 17.15695313 -0.24234375 16.31390625 -0.3671875 15.4453125 C-0.53476563 14.34960938 -0.70234375 13.25390625 -0.875 12.125 C-1.03742188 11.03445312 -1.19984375 9.94390625 -1.3671875 8.8203125 C-1.76256513 5.88067286 -1.76256513 5.88067286 -4 4 C-2.68 2.68 -1.36 1.36 0 0 Z " fill="#0E0E0E" transform="translate(199,230)"/>
<path d="M0 0 C0.66 1.32 1.32 2.64 2 4 C3.65 4 5.3 4 7 4 C6.01 5.485 6.01 5.485 5 7 C4.75892674 9.28648848 4.75892674 9.28648848 4.875 11.6875 C4.90207031 12.89986328 4.90207031 12.89986328 4.9296875 14.13671875 C4.95289063 14.75160156 4.97609375 15.36648437 5 16 C7.475 16.99 7.475 16.99 10 18 C9.81277533 25.96555867 9.81277533 25.96555867 6.9375 29.625 C2.82194138 31.5514317 0.41225441 30.89740768 -4 30 C-4 28.68 -4 27.36 -4 26 C-4.33 25.01 -4.66 24.02 -5 23 C-3.7260411 20.96166576 -2.38938077 18.96147874 -1 17 C-0.67 16.01 -0.34 15.02 0 14 C0.66 14 1.32 14 2 14 C2 12.02 2 10.04 2 8 C1.34 8 0.68 8 0 8 C0 7.34 0 6.68 0 6 C-0.66 6 -1.32 6 -2 6 C-1.34 4.02 -0.68 2.04 0 0 Z " fill="#770505" transform="translate(214,100)"/>
<path d="M0 0 C3.4375 0.375 3.4375 0.375 6.4375 1.375 C8.48358069 4.0349049 8.43197213 5.47818697 8.25 8.875 C6.94560811 14.49391892 6.94560811 14.49391892 4.4375 16.375 C1.25274252 16.66614387 -1.51876978 16.35556858 -4.5625 15.375 C-6.87348328 12.85392734 -7.41760484 11.20297232 -8 7.875 C-7.11806216 2.83535518 -5.09905793 0.53674294 0 0 Z " fill="#C0A21B" transform="translate(240.5625,172.625)"/>
<path d="M0 0 C3.3125 0.9375 3.3125 0.9375 5.3125 2.9375 C5.5078125 5.3203125 5.5078125 5.3203125 5.4375 8.0625 C5.41945313 8.97257813 5.40140625 9.88265625 5.3828125 10.8203125 C5.35960937 11.51898438 5.33640625 12.21765625 5.3125 12.9375 C5.9725 13.2675 6.6325 13.5975 7.3125 13.9375 C5.9925 15.2575 4.6725 16.5775 3.3125 17.9375 C2.3225 17.6075 1.3325 17.2775 0.3125 16.9375 C0.3125 16.2775 0.3125 15.6175 0.3125 14.9375 C-0.265 15.453125 -0.8425 15.96875 -1.4375 16.5 C-3.6875 17.9375 -3.6875 17.9375 -5.875 17.6875 C-7.6875 16.9375 -7.6875 16.9375 -8.6875 15.9375 C-8.52210061 11.55441616 -8.36278435 9.57984365 -5.125 6.5 C-4.320625 5.984375 -3.51625 5.46875 -2.6875 4.9375 C-4.6675 4.9375 -6.6475 4.9375 -8.6875 4.9375 C-4.64997961 -0.07881321 -4.64997961 -0.07881321 0 0 Z " fill="#121212" transform="translate(252.6875,230.0625)"/>
<path d="M0 0 C5.45454545 0.45454545 5.45454545 0.45454545 8 3 C8.54981704 6.24392053 8.82893258 7.9163708 8 11 C5.73312516 13.9114838 3.25745297 16.24644411 0 18 C-2.15625 17.82421875 -2.15625 17.82421875 -4 17 C-5.93253299 14.51531473 -6.88286556 12.58567221 -7.5 9.5 C-6.77468714 5.87343569 -4.7206106 4.39672838 -2 2 C-1.34 1.34 -0.68 0.68 0 0 Z " fill="#161616" transform="translate(267,230)"/>
<path d="M0 0 C5.36170213 0.59574468 5.36170213 0.59574468 7.875 2.1875 C9.49664405 4.80014875 9.20031953 6.99520702 9 10 C8.34 10 7.68 10 7 10 C6.938125 10.5775 6.87625 11.155 6.8125 11.75 C5.63330269 15.01546949 3.92310904 16.206274 1 18 C-1.6875 18 -1.6875 18 -4 17 C-5.98160959 14.54657861 -6.03663272 12.65809465 -6.375 9.5 C-6 6 -6 6 -4.125 3.5625 C-2 2 -2 2 0 2 C0 1.34 0 0.68 0 0 Z " fill="#060403" transform="translate(154,230)"/>
<path d="M0 0 C3.3125 0.9375 3.3125 0.9375 5.3125 2.9375 C5.5078125 5.3203125 5.5078125 5.3203125 5.4375 8.0625 C5.41945313 8.97257813 5.40140625 9.88265625 5.3828125 10.8203125 C5.35960938 11.51898438 5.33640625 12.21765625 5.3125 12.9375 C5.9725 12.9375 6.6325 12.9375 7.3125 12.9375 C7.3125 13.5975 7.3125 14.2575 7.3125 14.9375 C3.85096154 17.9375 3.85096154 17.9375 1.3125 17.9375 C0.6525 17.2775 -0.0075 16.6175 -0.6875 15.9375 C-1.6775 16.5975 -2.6675 17.2575 -3.6875 17.9375 C-5.875 17.5625 -5.875 17.5625 -7.6875 16.9375 C-8.625 14.3125 -8.625 14.3125 -8.6875 10.9375 C-6.6331142 8.54967986 -4.25707396 6.74453206 -1.6875 4.9375 C-3.9975 4.9375 -6.3075 4.9375 -8.6875 4.9375 C-4.64997961 -0.07881321 -4.64997961 -0.07881321 0 0 Z " fill="#0B0B0B" transform="translate(111.6875,230.0625)"/>
<path d="M0 0 C0.721875 0.185625 1.44375 0.37125 2.1875 0.5625 C5.176579 1.02746784 7.07597938 0.65790464 10 0 C11.6662553 -0.0370279 13.33401319 -0.04759962 15 0 C15 2 15 2 13.4375 3.625 C10.19319567 5.45512039 7.66275561 5.21131282 4 5 C4 6.65 4 8.3 4 10 C6.64 10 9.28 10 12 10 C11.34 11.32 10.68 12.64 10 14 C8.02 14 6.04 14 4 14 C4 15.65 4 17.3 4 19 C4.66 19.33 5.32 19.66 6 20 C4.71034824 21.37562854 3.37310707 22.70766393 2 24 C1.34 24 0.68 24 0 24 C-1.59412284 20.81175432 -1.10174735 17.37103338 -1.0625 13.875 C-1.05798828 13.12089844 -1.05347656 12.36679688 -1.04882812 11.58984375 C-1.03703499 9.72652873 -1.01909942 7.86325445 -1 6 C-1.99 6 -2.98 6 -4 6 C-3.34 4.68 -2.68 3.36 -2 2 C-1.34 2 -0.68 2 0 2 C0 1.34 0 0.68 0 0 Z " fill="#121212" transform="translate(48,224)"/>
<path d="M0 0 C0.99 0.33 1.98 0.66 3 1 C2.34 2.32 1.68 3.64 1 5 C1.48082031 5.33773437 1.96164063 5.67546875 2.45703125 6.0234375 C4.76394525 8.97862353 4.6576746 12.01612654 4.6875 15.625 C4.69458984 16.33978516 4.70167969 17.05457031 4.70898438 17.79101562 C4.53966645 22.83852033 3.47754993 25.64699778 0 29.5 C-1.29699969 30.70693027 -2.61895106 31.89022853 -4 33 C-4.99 32.67 -5.98 32.34 -7 32 C-6.03320312 31.00419922 -6.03320312 31.00419922 -5.046875 29.98828125 C-2.57131059 26.37414618 -2.33925904 23.42730432 -2.25 19.1875 C-2.22035156 18.49462891 -2.19070312 17.80175781 -2.16015625 17.08789062 C-2.09000372 15.39253787 -2.04267338 13.69626688 -2 12 C-3.32 11.67 -4.64 11.34 -6 11 C-5.34 10.67 -4.68 10.34 -4 10 C-4.99 8.68 -5.98 7.36 -7 6 C-6.67 5.34 -6.34 4.68 -6 4 C-5.34 4 -4.68 4 -4 4 C-3.67 3.67 -3.34 3.34 -3 3 C-2 2 -1 1 0 0 Z " fill="#171717" transform="translate(97,224)"/>
<path d="M0 0 C0.33 1.98 0.66 3.96 1 6 C-0.32 6.33 -1.64 6.66 -3 7 C-2.67 7.66 -2.34 8.32 -2 9 C0.52733235 9.65555119 0.52733235 9.65555119 3 10 C3 10.33 3 10.66 3 11 C-5.25 11 -13.5 11 -22 11 C-21 7 -21 7 -18.92578125 5.5859375 C-6.09698602 -0.35864624 -6.09698602 -0.35864624 0 0 Z " fill="#F9F0F0" transform="translate(128,185)"/>
<path d="M0 0 C0 1.32 0 2.64 0 4 C0.66 4 1.32 4 2 4 C1.67 8.95 1.34 13.9 1 19 C3.31 19.33 5.62 19.66 8 20 C7.67 20.99 7.34 21.98 7 23 C2.89864774 23.64334937 -0.82736898 24 -5 24 C-4.505 15.09 -4.505 15.09 -4 6 C-4.99 6 -5.98 6 -7 6 C-7 5.01 -7 4.02 -7 3 C-4.46815512 0.64276511 -3.52809907 0 0 0 Z " fill="#080100" transform="translate(180,224)"/>
<path d="M0 0 C0.99 0.33 1.98 0.66 3 1 C5.1478674 5.61445062 5.09706558 9.37110482 4.625 14.375 C4.45871094 16.24285156 4.45871094 16.24285156 4.2890625 18.1484375 C4.14597656 19.55996094 4.14597656 19.55996094 4 21 C4.66 21.33 5.32 21.66 6 22 C4.75 23.5625 4.75 23.5625 3 25 C1.68 24.67 0.36 24.34 -1 24 C-1 20.04 -1 16.08 -1 12 C-1.66 12 -2.32 12 -3 12 C-2.67 10.02 -2.34 8.04 -2 6 C-2.66 5.67 -3.32 5.34 -4 5 C-4 4.34 -4 3.68 -4 3 C-2.1875 1.3125 -2.1875 1.3125 0 0 Z " fill="#0B0909" transform="translate(141,222)"/>
<path d="M0 0 C2.31 0.33 4.62 0.66 7 1 C4.92811531 3.07188469 3.60441627 3.61782941 0.9375 4.6875 C-1.21854201 5.65865401 -1.21854201 5.65865401 -3 7 C-4.12019208 10.48504203 -4.25593616 12.68375687 -3.5625 16.25 C-0.6572777 19.50384898 3.91770664 20.73065301 8.16110229 21.27954102 C10.44367001 21.38949664 12.71093593 21.41506115 14.99609375 21.40625 C15.82907486 21.41708618 16.66205597 21.42792236 17.52027893 21.43908691 C20.15943265 21.47307453 22.79815719 21.48888087 25.4375 21.5 C28.91576981 21.51468298 32.39310078 21.54855699 35.87109375 21.59375 C36.65262314 21.59072876 37.43415253 21.58770752 38.23936462 21.58459473 C44.29899689 21.66582076 51.11176045 22.36392686 55.75730896 26.60388184 C56.167397 27.06460083 56.57748505 27.52531982 57 28 C54.52886239 27.54881757 52.16504554 27.05506963 49.7800293 26.25927734 C39.86446955 22.95173064 29.56257629 23.58096131 19.23461914 23.63964844 C1.93469831 23.69902466 1.93469831 23.69902466 -3.71606445 19.46240234 C-5.87700512 17.00109133 -7.00929583 14.93578072 -6.9765625 11.640625 C-6.86054687 10.85171875 -6.74453125 10.0628125 -6.625 9.25 C-6.51414062 8.45078125 -6.40328125 7.6515625 -6.2890625 6.828125 C-6.19367188 6.22484375 -6.09828125 5.6215625 -6 5 C-4.68 5 -3.36 5 -2 5 C-1.34 3.35 -0.68 1.7 0 0 Z " fill="#66090B" transform="translate(110,186)"/>
<path d="M0 0 C4.85308929 0.03516731 9.01599057 1.50621855 13.5 3.25 C13.125 5.1875 13.125 5.1875 12.5 7.25 C9.8138816 8.5930592 7.76149925 8.34558329 4.7578125 8.3125 C3.60925781 8.30476562 2.46070313 8.29703125 1.27734375 8.2890625 C-1.14974048 8.26310438 -3.57682382 8.23706325 -6.00390625 8.2109375 C-7.15503906 8.20320312 -8.30617187 8.19546875 -9.4921875 8.1875 C-10.54776855 8.17589844 -11.60334961 8.16429687 -12.69091797 8.15234375 C-15.14922773 8.23780559 -17.15939909 8.53522677 -19.5 9.25 C-18.84 8.92 -18.18 8.59 -17.5 8.25 C-17.5 7.59 -17.5 6.93 -17.5 6.25 C-12.55 5.92 -7.6 5.59 -2.5 5.25 C-3.16 3.93 -3.82 2.61 -4.5 1.25 C-3.5 0.25 -3.5 0.25 0 0 Z " fill="#761010" transform="translate(208.5,162.75)"/>
<path d="M0 0 C0.66 0.33 1.32 0.66 2 1 C1.67 1.99 1.34 2.98 1 4 C1.66 4 2.32 4 3 4 C3.36551926 8.6603705 3.62058305 11.95142865 1.1875 16.0625 C-1 18 -1 18 -4 18 C-4 17.34 -4 16.68 -4 16 C-4.99 15.67 -5.98 15.34 -7 15 C-7.43478214 11.89441326 -7.59797636 9.09038203 -7 6 C-4.9849419 3.5001159 -2.68200647 1.74467257 0 0 Z " fill="#0E0E0D" transform="translate(137,230)"/>
<path d="M0 0 C0 3 0 3 -2.4375 5.6875 C-8.43788617 9.75743406 -17.05315183 8.79953629 -24 8 C-27.01748633 7.28038266 -29.22832063 6.41532564 -32 5 C-32 4.01 -32 3.02 -32 2 C-31.28585938 2.15082031 -30.57171875 2.30164063 -29.8359375 2.45703125 C-22.51427811 3.85883656 -16.12495935 4.65439662 -9 2 C-3.22222222 0 -3.22222222 0 0 0 Z " fill="#4F1511" transform="translate(176,248)"/>
<path d="M0 0 C10.55808656 -0.18451025 10.55808656 -0.18451025 15 1 C13.125 4.875 13.125 4.875 12 6 C14.97 6.495 14.97 6.495 18 7 C17.25 9.4375 17.25 9.4375 16 12 C12.59997139 13.42183014 9.78288597 12.77748883 6.25 12.0625 C5.26515625 11.86785156 4.2803125 11.67320312 3.265625 11.47265625 C2.51796875 11.31667969 1.7703125 11.16070312 1 11 C1 9.02 1 7.04 1 5 C2.65 5 4.3 5 6 5 C5.67 4.67 5.34 4.34 5 4 C6.32 3.67 7.64 3.34 9 3 C7.50256881 1.50256881 6.01175761 1.66797307 3.9375 1.4375 C2.638125 1.293125 1.33875 1.14875 0 1 C0 0.67 0 0.34 0 0 Z " fill="#FCF6F7" transform="translate(232,161)"/>
<path d="M0 0 C0.268125 0.5775 0.53625 1.155 0.8125 1.75 C1.92744818 4.03681245 1.92744818 4.03681245 3.5625 5.9375 C5.20628942 8.29598047 5.60798393 10.17748429 6 13 C1.65745856 16.98066298 1.65745856 16.98066298 -1.125 17.0625 C-3.84824081 15.51933021 -4.71554244 13.82580664 -6 11 C-6.5625 8.5625 -6.5625 8.5625 -6 6 C-4.18494267 3.77984292 -2.16513611 1.87516253 0 0 Z " fill="#171717" transform="translate(68,231)"/>
<path d="M0 0 C3.58326501 -0.05814085 7.16640838 -0.09364357 10.75 -0.125 C11.76578125 -0.14175781 12.7815625 -0.15851563 13.828125 -0.17578125 C14.8078125 -0.18222656 15.7875 -0.18867188 16.796875 -0.1953125 C17.69760742 -0.20578613 18.59833984 -0.21625977 19.52636719 -0.22705078 C23.30066159 0.11938564 25.34524099 1.34524099 28 4 C28.680625 4.165 29.36125 4.33 30.0625 4.5 C30.701875 4.665 31.34125 4.83 32 5 C33.40248912 7.80497823 33.16979056 10.18501365 33.1875 13.3125 C33.20167969 14.44300781 33.21585938 15.57351562 33.23046875 16.73828125 C33.00265899 19.96236847 32.48285228 22.14355823 31 25 C30.34 25.33 29.68 25.66 29 26 C29.03480469 25.05898437 29.06960937 24.11796875 29.10546875 23.1484375 C29.13253906 21.90320313 29.15960938 20.65796875 29.1875 19.375 C29.22230469 18.14523438 29.25710937 16.91546875 29.29296875 15.6484375 C28.96404114 11.55219236 28.33367244 9.37980147 26 6 C20.5096978 1.83156674 15.82500222 1.36313692 9.0625 1.25 C8.18787109 1.22035156 7.31324219 1.19070312 6.41210938 1.16015625 C4.27522123 1.09009434 2.13760977 1.04270949 0 1 C0 0.67 0 0.34 0 0 Z M34 4 C34.33 4 34.66 4 35 4 C35 5.65 35 7.3 35 9 C34.34 7.68 33.68 6.36 33 5 C33.33 4.67 33.66 4.34 34 4 Z " fill="#593C3B" transform="translate(116,216)"/>
<path d="M0 0 C0.763125 0.185625 1.52625 0.37125 2.3125 0.5625 C3.1478125 0.7790625 3.1478125 0.7790625 4 1 C4 1.66 4 2.32 4 3 C3.34 3 2.68 3 2 3 C2 7.62 2 12.24 2 17 C1.67 17 1.34 17 1 17 C1 13.7 1 10.4 1 7 C-0.32 6.67 -1.64 6.34 -3 6 C-3 7.98 -3 9.96 -3 12 C-3.99 12 -4.98 12 -6 12 C-8.29013653 8.5647952 -8.17842973 7.014669 -8 3 C-8.66 2.67 -9.32 2.34 -10 2 C-6.23149808 -0.69178709 -4.44866793 -1.3688209 0 0 Z " fill="#131313" transform="translate(239,231)"/>
<path d="M0 0 C2 0.8125 2 0.8125 3.1171875 2.56640625 C4.10445381 5.07825639 4.20399467 6.87668122 4.125 9.5625 C4.10695312 10.36171875 4.08890625 11.1609375 4.0703125 11.984375 C4.03550781 12.88929688 4.03550781 12.88929688 4 13.8125 C0.71303767 14.61203138 -0.71023192 14.90908936 -4 13.8125 C-4 9.5225 -4 5.2325 -4 0.8125 C-2 -0.1875 -2 -0.1875 0 0 Z " fill="#362121" transform="translate(185,229.1875)"/>
<path d="M0 0 C0.33 0.66 0.66 1.32 1 2 C0.4946875 2.29132813 -0.010625 2.58265625 -0.53125 2.8828125 C-2.53502197 4.1470972 -4.29738433 5.34859082 -6 7 C-6.5863982 10.21276343 -6.5863982 10.21276343 -6 13 C-8.31 12.67 -10.62 12.34 -13 12 C-12.67 11.01 -12.34 10.02 -12 9 C-12.66 9 -13.32 9 -14 9 C-14 6.36 -14 3.72 -14 1 C-13.2575 1.20625 -12.515 1.4125 -11.75 1.625 C-7.56297206 2.19595836 -4.45619828 -0.24756657 0 0 Z " fill="#EEEDED" transform="translate(217,234)"/>
<path d="M0 0 C3.5908444 0.4833829 3.94709234 0.79289784 6.125 3.4375 C7.176875 4.9225 7.176875 4.9225 8.25 6.4375 C7.92 7.0975 7.59 7.7575 7.25 8.4375 C6.26 8.4375 5.27 8.4375 4.25 8.4375 C2.7893715 11.08488916 2.25 12.33198334 2.25 15.4375 C-1.2097769 13.70761155 -2.36538458 9.9220061 -3.75 6.4375 C-4.0625 3.5 -4.0625 3.5 -3.75 1.4375 C-2.75 0.4375 -2.75 0.4375 0 0 Z " fill="#F8EBEA" transform="translate(191.75,110.5625)"/>
<path d="M0 0 C1.65 0.66 3.3 1.32 5 2 C3.68 3.32 2.36 4.64 1 6 C0.67 5.34 0.34 4.68 0 4 C-0.99 4.66 -1.98 5.32 -3 6 C-5.69921875 5.9765625 -5.69921875 5.9765625 -8.6875 5.625 C-10.17830078 5.45871094 -10.17830078 5.45871094 -11.69921875 5.2890625 C-12.45847656 5.19367188 -13.21773437 5.09828125 -14 5 C-14 5.99 -14 6.98 -14 8 C-14.99 8 -15.98 8 -17 8 C-16.67 9.32 -16.34 10.64 -16 12 C-17.65 12 -19.3 12 -21 12 C-21.66 10.68 -22.32 9.36 -23 8 C-20.69 7.34 -18.38 6.68 -16 6 C-16.66 5.34 -17.32 4.68 -18 4 C-13.545 3.505 -13.545 3.505 -9 3 C-9.66 2.34 -10.32 1.68 -11 1 C-3.57142857 0.71428571 -3.57142857 0.71428571 0 3 C0 2.01 0 1.02 0 0 Z " fill="#791317" transform="translate(191,88)"/>
<path d="M0 0 C0 1.65 0 3.3 0 5 C7.59 5.33 15.18 5.66 23 6 C23.495 7.485 23.495 7.485 24 9 C20.91536683 9 17.8756905 8.92445072 14.796875 8.78125 C13.8171875 8.73613281 12.8375 8.69101563 11.828125 8.64453125 C10.81234375 8.59683594 9.7965625 8.54914063 8.75 8.5 C7.203125 8.42845703 7.203125 8.42845703 5.625 8.35546875 C3.0832942 8.23779719 0.54163085 8.11927773 -2 8 C-2 6.35 -2 4.7 -2 3 C-4.97 2.505 -4.97 2.505 -8 2 C-8.33 2.66 -8.66 3.32 -9 4 C-8.6875 2.0625 -8.6875 2.0625 -8 0 C-4.71023192 -1.09658936 -3.28696233 -0.79953138 0 0 Z " fill="#471919" transform="translate(175,190)"/>
<path d="M0 0 C-0.33 0.66 -0.66 1.32 -1 2 C-1.99 2.33 -2.98 2.66 -4 3 C-5.66710346 4.49985609 -5.66710346 4.49985609 -7 6 C-7.33 5.34 -7.66 4.68 -8 4 C-8.99 4.495 -8.99 4.495 -10 5 C-11.37548156 5.08308638 -12.75485796 5.10736016 -14.1328125 5.09765625 C-14.93847656 5.09443359 -15.74414062 5.09121094 -16.57421875 5.08789062 C-17.41597656 5.07951172 -18.25773438 5.07113281 -19.125 5.0625 C-19.97449219 5.05798828 -20.82398438 5.05347656 -21.69921875 5.04882812 C-23.79950909 5.03702874 -25.8997633 5.01909306 -28 5 C-28 4.34 -28 3.68 -28 3 C-19.585 2.505 -19.585 2.505 -11 2 C-11 1.67 -11 1.34 -11 1 C-12.32 0.67 -13.64 0.34 -15 0 C-9.52622954 -1.86108196 -5.31840974 -2.65920487 0 0 Z " fill="#5B1012" transform="translate(159,192)"/>
<path d="M0 0 C3.26346127 4.12731867 4 5.56777947 4 11 C0.7 11 -2.6 11 -6 11 C-6.48951049 4.63636364 -6.48951049 4.63636364 -4.125 1.5625 C-2 0 -2 0 0 0 Z " fill="#080305" transform="translate(154,232)"/>
<path d="M0 0 C2 3 2 3 2.5 5.125 C2.665 5.74375 2.83 6.3625 3 7 C3.66 7.33 4.32 7.66 5 8 C4.67 8.66 4.34 9.32 4 10 C9.28 10 14.56 10 20 10 C19.67 10.66 19.34 11.32 19 12 C11.45621395 13.6619452 4.055672 13.20712363 -3 10 C-3.33 10.66 -3.66 11.32 -4 12 C-4 10.68 -4 9.36 -4 8 C-4.66 7.67 -5.32 7.34 -6 7 C-4.35 6.67 -2.7 6.34 -1 6 C-1.20625 5.38125 -1.4125 4.7625 -1.625 4.125 C-1.74875 3.42375 -1.8725 2.7225 -2 2 C-1.34 1.34 -0.68 0.68 0 0 Z " fill="#441C1A" transform="translate(147,240)"/>
<path d="M0 0 C0 0.99 0 1.98 0 3 C-1.98 3.99 -1.98 3.99 -4 5 C-4 5.99 -4 6.98 -4 8 C-2.68 8.66 -1.36 9.32 0 10 C-6.08251096 11.70366626 -10.77104914 12.13253652 -17 11 C-17 10.34 -17 9.68 -17 9 C-16.02417969 8.60167969 -15.04835937 8.20335937 -14.04296875 7.79296875 C-12.75765064 7.25820136 -11.47250325 6.72302352 -10.1875 6.1875 C-9.54490234 5.92646484 -8.90230469 5.66542969 -8.24023438 5.39648438 C-4.94595903 4.01391286 -2.27314608 2.81396894 0 0 Z " fill="#FBEEEC" transform="translate(155,180)"/>
<path d="M0 0 C0.7425 0.2475 1.485 0.495 2.25 0.75 C2.25 3.41666667 2.25 6.08333333 2.25 8.75 C-0.10438733 10.17944945 -1.23032433 10.83661261 -4 10.375 C-4.5775 10.16875 -5.155 9.9625 -5.75 9.75 C-6.5 7 -6.5 7 -6.75 3.75 C-4.66788764 0.62683146 -3.81124618 -0.34647693 0 0 Z " fill="#141414" transform="translate(109.75,237.25)"/>
<path d="M0 0 C0 1.98 0 3.96 0 6 C-0.99 6.495 -0.99 6.495 -2 7 C-3.13350534 9.01669827 -3.13350534 9.01669827 -4 11 C-7.875 10.125 -7.875 10.125 -9 9 C-8.875 5.625 -8.875 5.625 -8 2 C-4.86024789 -0.64400178 -3.96767419 -1.32255806 0 0 Z " fill="#444444" transform="translate(253,237)"/>
<path d="M0 0 C0.86625 0.3403125 0.86625 0.3403125 1.75 0.6875 C2.08 3.3275 2.41 5.9675 2.75 8.6875 C0.44 9.3475 -1.87 10.0075 -4.25 10.6875 C-5.8125 9.5 -5.8125 9.5 -7.25 7.6875 C-7.16976663 4.47816532 -6.67611167 3.12830518 -4.4375 0.8125 C-2.25 -0.3125 -2.25 -0.3125 0 0 Z " fill="#121111" transform="translate(217.25,237.3125)"/>
<path d="M0 0 C0.99 0.33 1.98 0.66 3 1 C2.649375 1.61875 2.29875 2.2375 1.9375 2.875 C1.628125 3.57625 1.31875 4.2775 1 5 C1.33 5.66 1.66 6.32 2 7 C1.55527344 7.82757813 1.55527344 7.82757813 1.1015625 8.671875 C-0.40812482 11.86256169 -0.42995135 14.7391243 -0.625 18.25 C-0.69976562 19.51328125 -0.77453125 20.7765625 -0.8515625 22.078125 C-0.90054688 23.04234375 -0.94953125 24.0065625 -1 25 C-1.33 25 -1.66 25 -2 25 C-2 20.71 -2 16.42 -2 12 C-3.32 11.67 -4.64 11.34 -6 11 C-5.34 10.67 -4.68 10.34 -4 10 C-4.99 8.68 -5.98 7.36 -7 6 C-6.67 5.34 -6.34 4.68 -6 4 C-5.34 4 -4.68 4 -4 4 C-3.67 3.67 -3.34 3.34 -3 3 C-2 2 -1 1 0 0 Z " fill="#9A9A9A" transform="translate(97,224)"/>
<path d="M0 0 C-3.96 3.465 -3.96 3.465 -8 7 C-7.34 7.66 -6.68 8.32 -6 9 C-5.8046875 11.1640625 -5.8046875 11.1640625 -5.875 13.625 C-5.89304688 14.44226563 -5.91109375 15.25953125 -5.9296875 16.1015625 C-5.96449219 17.04128906 -5.96449219 17.04128906 -6 18 C-7.65 17.01 -9.3 16.02 -11 15 C-10.96529968 3.96529968 -10.96529968 3.96529968 -7.1875 0.1875 C-4 -1 -4 -1 0 0 Z " fill="#DFDEDE" transform="translate(204,227)"/>
<path d="M0 0 C1.32 0.33 2.64 0.66 4 1 C4.36374381 3.89491978 4.71628667 6.79047623 5.0625 9.6875 C5.16626953 10.50412109 5.27003906 11.32074219 5.37695312 12.16210938 C5.86771898 16.3420806 6.19772195 19.88754211 5 24 C7.475 24.99 7.475 24.99 10 26 C6.7169902 27.6415049 3.57454967 26.51888624 0 26 C0.32484375 25.16597656 0.6496875 24.33195312 0.984375 23.47265625 C2.10658724 19.63555362 2.26611202 16.42925234 2.25 12.4375 C2.25773437 10.51744141 2.25773437 10.51744141 2.265625 8.55859375 C2.01723151 5.23085152 1.44081142 2.97882043 0 0 Z " fill="#73181B" transform="translate(64,87)"/>
<path d="M0 0 C4.75 0.75 4.75 0.75 7 3 C7.26991906 5.68839385 7.08737357 8.29141936 7 11 C5.02 11.99 5.02 11.99 3 13 C2.28385417 11.27473958 1.56770833 9.54947917 0.8515625 7.82421875 C-0.06806692 5.73466068 -0.06806692 5.73466068 -2 3 C-1.34 2.01 -0.68 1.02 0 0 Z " fill="#0C0C0C" transform="translate(70,230)"/>
<path d="M0 0 C2.5625 0.1875 2.5625 0.1875 4.5625 2.1875 C4.83241906 4.87589385 4.64987357 7.47891936 4.5625 10.1875 C2.5825 11.1775 2.5825 11.1775 0.5625 12.1875 C-2.97596154 4.1875 -2.97596154 4.1875 -3.4375 1.1875 C-2.4375 0.1875 -2.4375 0.1875 0 0 Z " fill="#0D0D0D" transform="translate(270.4375,230.8125)"/>
<path d="M0 0 C2.375 0.625 2.375 0.625 5 2 C6.3125 5.125 6.3125 5.125 7 8 C5.6875 9.5 5.6875 9.5 4 11 C3.01 11 2.02 11 1 11 C-0.04115841 9.69855198 -1.03886134 8.36161311 -2 7 C-2.99 6.34 -3.98 5.68 -5 5 C-3.68 4.67 -2.36 4.34 -1 4 C-0.67 2.68 -0.34 1.36 0 0 Z " fill="#730202" transform="translate(171,216)"/>
<path d="M0 0 C4.81970922 -0.07473903 9.63907335 -0.12887722 14.45922852 -0.16479492 C16.09535609 -0.17978456 17.73144415 -0.20018332 19.36743164 -0.22631836 C40.18928128 -0.55036912 40.18928128 -0.55036912 45.72241211 4.60473633 C46.14401611 5.06517334 46.56562012 5.52561035 47 6 C43.63041783 5.37963192 40.45988115 4.52083199 37.19921875 3.48046875 C29.81544554 1.44147145 22.41089714 1.43453087 14.8125 1.3125 C13.36911134 1.2792422 11.92575069 1.2447451 10.48242188 1.20898438 C6.98848726 1.12506562 3.49447575 1.05781008 0 1 C0 0.67 0 0.34 0 0 Z " fill="#4F1614" transform="translate(120,208)"/>
<path d="M0 0 C0.66 1.32 1.32 2.64 2 4 C3.65 4 5.3 4 7 4 C6.01 5.485 6.01 5.485 5 7 C4.75892674 9.28648848 4.75892674 9.28648848 4.875 11.6875 C4.89304688 12.49574219 4.91109375 13.30398437 4.9296875 14.13671875 C4.95289063 14.75160156 4.97609375 15.36648437 5 16 C7.475 16.99 7.475 16.99 10 18 C10 19.98 10 21.96 10 24 C9.67 24 9.34 24 9 24 C9 22.35 9 20.7 9 19 C8.38125 19.20625 7.7625 19.4125 7.125 19.625 C6.42375 19.74875 5.7225 19.8725 5 20 C2.50494038 17.50494038 2.64051624 16.32671112 2.375 12.875 C2.30023438 11.96492188 2.22546875 11.05484375 2.1484375 10.1171875 C2.09945312 9.41851562 2.05046875 8.71984375 2 8 C1.34 8 0.68 8 0 8 C0 7.34 0 6.68 0 6 C-0.66 6 -1.32 6 -2 6 C-1.34 4.02 -0.68 2.04 0 0 Z " fill="#71090C" transform="translate(214,100)"/>
<path d="M0 0 C19.37751787 -0.43274854 19.37751787 -0.43274854 26 2 C26.33 2.66 26.66 3.32 27 4 C27.804375 4.474375 28.60875 4.94875 29.4375 5.4375 C32 7 32 7 34 10 C33.67 10.99 33.34 11.98 33 13 C31.62437146 11.71034824 30.29233607 10.37310707 29 9 C29 8.34 29 7.68 29 7 C27.02 6.34 25.04 5.68 23 5 C23 4.34 23 3.68 23 3 C15.41 2.34 7.82 1.68 0 1 C0 0.67 0 0.34 0 0 Z " fill="#4F1613" transform="translate(139,217)"/>
<path d="M0 0 C2 2 2 2 2.1953125 5.4765625 C2.18201493 6.85950968 2.15816232 8.24238654 2.125 9.625 C2.11597656 10.33140625 2.10695313 11.0378125 2.09765625 11.765625 C2.07407603 13.51056098 2.03820461 15.25532295 2 17 C2.77730469 16.66226563 3.55460937 16.32453125 4.35546875 15.9765625 C7.18824089 14.93048712 8.23309576 14.97522065 11 16 C10.01 16.33 9.02 16.66 8 17 C7.67 17.99 7.34 18.98 7 20 C6.34 20 5.68 20 5 20 C5 20.66 5 21.32 5 22 C4.01 22 3.02 22 2 22 C0.22646151 16.90107685 -0.16527781 12.62777869 0.02734375 7.234375 C0.11132134 4.82630535 0.11132134 4.82630535 -1 2 C-0.67 1.34 -0.34 0.68 0 0 Z " fill="#F4E0E1" transform="translate(82,121)"/>
<path d="M0 0 C0 0.99 0 1.98 0 3 C-6.28453206 6.32797915 -10.88658735 7.45164525 -18 7 C-17.34 6.67 -16.68 6.34 -16 6 C-16 5.34 -16 4.68 -16 4 C-14.96875 3.71125 -13.9375 3.4225 -12.875 3.125 C-10.46334553 2.44153517 -8.12253663 1.69626268 -5.75 0.875 C-3 0 -3 0 0 0 Z " fill="#6D050A" transform="translate(176,248)"/>
<path d="M0 0 C2.4375 0.6875 2.4375 0.6875 4.4375 1.6875 C4.4375 2.6775 4.4375 3.6675 4.4375 4.6875 C-0.1825 6.3375 -4.8025 7.9875 -9.5625 9.6875 C-7.67906068 5.92062136 -6.87117531 4.89328354 -3.5625 2.6875 C-4.2225 2.3575 -4.8825 2.0275 -5.5625 1.6875 C-2.5625 -0.3125 -2.5625 -0.3125 0 0 Z " fill="#F8EDE8" transform="translate(130.5625,149.3125)"/>
<path d="M0 0 C0.66 0 1.32 0 2 0 C2.125 3.375 2.125 3.375 2 7 C1.34 7.66 0.68 8.32 0 9 C0.66 9.33 1.32 9.66 2 10 C1.83628906 10.54140625 1.67257813 11.0828125 1.50390625 11.640625 C0.91409413 14.40222593 0.90390692 16.92818139 0.9375 19.75 C0.95103516 21.22726563 0.95103516 21.22726563 0.96484375 22.734375 C0.97644531 23.48203125 0.98804688 24.2296875 1 25 C0.01 24.34 -0.98 23.68 -2 23 C-2.36328125 20.90625 -2.36328125 20.90625 -2.3125 18.5 C-2.30863281 17.7059375 -2.30476562 16.911875 -2.30078125 16.09375 C-2 14 -2 14 0 12 C-1.32 11.67 -2.64 11.34 -4 11 C-3.57270986 8.52171717 -3.28174873 7.27047878 -1.4375 5.5 C0.46127024 3.86494057 0.46127024 3.86494057 0 0 Z " fill="#EDD2D0" transform="translate(220,93)"/>
<path d="M0 0 C4.93045718 4.77141017 4.93045718 4.77141017 5.1875 9.3125 C5.01102867 12.78310282 4.6117346 14.95561243 3 18 C2.34 18.33 1.68 18.66 1 19 C1.01740234 17.57107422 1.01740234 17.57107422 1.03515625 16.11328125 C1.04417969 14.85902344 1.05320313 13.60476562 1.0625 12.3125 C1.07410156 11.07113281 1.08570313 9.82976562 1.09765625 8.55078125 C1.01478673 5.53764546 0.70839449 2.91724661 0 0 Z " fill="#F4F3F2" transform="translate(144,223)"/>
<path d="M0 0 C4.67105792 1.55701931 8.08705685 4.08447373 12 7 C11.01 7.495 11.01 7.495 10 8 C10.165 8.94875 10.33 9.8975 10.5 10.875 C11.18541792 15.5763877 11.08583441 20.26003286 11 25 C10.34 25 9.68 25 9 25 C8.96132812 23.48019531 8.96132812 23.48019531 8.921875 21.9296875 C8.86555819 20.57808403 8.80821167 19.22652319 8.75 17.875 C8.73582031 17.20984375 8.72164062 16.5446875 8.70703125 15.859375 C8.46070102 10.83423826 7.14010761 7.88998405 4 4 C1.89960669 2.61131484 1.89960669 2.61131484 0 2 C0 1.34 0 0.68 0 0 Z " fill="#71191A" transform="translate(75,113)"/>
<path d="M0 0 C5.39882424 4.59474404 10.71333087 9.27676273 16 14 C15.01 14.66 14.02 15.32 13 16 C12.55269531 15.54109375 12.10539063 15.0821875 11.64453125 14.609375 C8.89615581 11.81997903 6.2816817 9.20819952 3.125 6.875 C0.60297491 4.64968375 0.27462423 3.29549073 0 0 Z " fill="#68171E" transform="translate(185,73)"/>
<path d="M0 0 C0.66 0 1.32 0 2 0 C2 2.64 2 5.28 2 8 C2.66 8 3.32 8 4 8 C3 11 3 11 0.9375 12.1875 C0.298125 12.455625 -0.34125 12.72375 -1 13 C-2.51297182 10.59704475 -3.03665969 9.36659693 -2.75 6.5 C-2.045492 4.15164001 -1.18844709 2.13920477 0 0 Z " fill="#080708" transform="translate(222,235)"/>
<path d="M0 0 C0.33 0.99 0.66 1.98 1 3 C-2.85623679 6.97674419 -2.85623679 6.97674419 -6.11328125 7.04296875 C-8.08863015 6.7798228 -10.04718291 6.39718314 -12 6 C-12 5.01 -12 4.02 -12 3 C-10.68 3 -9.36 3 -8 3 C-5.84383083 2.37135558 -5.84383083 2.37135558 -3.75 1.5 C-3.04359375 1.2215625 -2.3371875 0.943125 -1.609375 0.65625 C-1.07828125 0.4396875 -0.5471875 0.223125 0 0 Z " fill="#7B1E20" transform="translate(222,124)"/>
<path d="M0 0 C2.05078125 0.03255208 4.1015625 0.06510417 6.15234375 0.09765625 C6.48234375 0.75765625 6.81234375 1.41765625 7.15234375 2.09765625 C5.72921875 2.96390625 5.72921875 2.96390625 4.27734375 3.84765625 C1.39100277 5.92582176 0.31138634 6.852337 -0.84765625 10.09765625 C-1.50765625 10.09765625 -2.16765625 10.09765625 -2.84765625 10.09765625 C-2.87454841 8.61858733 -2.89400246 7.13938142 -2.91015625 5.66015625 C-2.92175781 4.83644531 -2.93335937 4.01273438 -2.9453125 3.1640625 C-2.8198894 0.51010975 -2.66068535 0.14062819 0 0 Z " fill="#EAEAEA" transform="translate(103.84765625,233.90234375)"/>
<path d="M0 0 C17.34042553 -0.76595745 17.34042553 -0.76595745 25 4 C25 4.66 25 5.32 25 6 C23.845 5.731875 22.69 5.46375 21.5 5.1875 C14.37241259 3.59723572 7.1811506 2.32168416 0 1 C0 0.67 0 0.34 0 0 Z " fill="#EED3CF" transform="translate(146,64)"/>
<path d="M0 0 C1.2065625 0.0309375 1.2065625 0.0309375 2.4375 0.0625 C2.4375 2.3725 2.4375 4.6825 2.4375 7.0625 C0.4575 8.0525 0.4575 8.0525 -1.5625 9.0625 C-3.71059171 5.84036243 -3.85636153 4.78474599 -3.5625 1.0625 C-2.5625 0.0625 -2.5625 0.0625 0 0 Z " fill="#E5E7E6" transform="translate(137.5625,233.9375)"/>
<path d="M0 0 C0.66 0.33 1.32 0.66 2 1 C1.01 2.485 1.01 2.485 0 4 C6.93 4.495 6.93 4.495 14 5 C14.33 4.34 14.66 3.68 15 3 C16.98 3.66 18.96 4.32 21 5 C21 5.33 21 5.66 21 6 C12.75 6 4.5 6 -4 6 C-3 2 -3 2 0 0 Z " fill="#E8CFCD" transform="translate(110,190)"/>
<path d="M0 0 C1.15518918 0.90484792 2.29885406 1.8244206 3.4375 2.75 C4.07558594 3.26046875 4.71367187 3.7709375 5.37109375 4.296875 C7.18810554 6.19667629 7.60423197 7.43586908 8 10 C5.33333333 8.66666667 2.66666667 7.33333333 0 6 C0 6.99 0 7.98 0 9 C-1.32 8.34 -2.64 7.68 -4 7 C-3.34 7 -2.68 7 -2 7 C-2 6.34 -2 5.68 -2 5 C-1.34 4.67 -0.68 4.34 0 4 C0 2.68 0 1.36 0 0 Z " fill="#EED0CC" transform="translate(191,82)"/>
<path d="M0 0 C0.185625 0.9590625 0.185625 0.9590625 0.375 1.9375 C0.684375 2.9584375 0.684375 2.9584375 1 4 C1.66 4.33 2.32 4.66 3 5 C3 8 3 8 1.5625 9.5625 C1.046875 10.036875 0.53125 10.51125 0 11 C-0.33 11.66 -0.66 12.32 -1 13 C0.98 13.66 2.96 14.32 5 15 C5 15.66 5 16.32 5 17 C2.32142828 16.63803085 0.39019086 16.26012724 -1.875 14.75 C-3 13 -3 13 -2.8125 10.8125 C-2.544375 9.884375 -2.27625 8.95625 -2 8 C-1.64218601 6.56340353 -1.28819342 5.12585128 -0.9375 3.6875 C-0.628125 2.470625 -0.31875 1.25375 0 0 Z " fill="#EFD4D4" transform="translate(204,146)"/>
<path d="M0 0 C0 4.51238421 -2.35523578 7.44743833 -5 11 C-7.8125 13.5 -7.8125 13.5 -10 15 C-10 9.51768203 -5.26663879 5.33330399 -1.625 1.5 C-0.820625 0.7575 -0.820625 0.7575 0 0 Z " fill="#F3E2DD" transform="translate(161,80)"/>
<path d="M0 0 C0.33 0.66 0.66 1.32 1 2 C4.02934491 2.65772428 4.02934491 2.65772428 7 3 C7 2.34 7 1.68 7 1 C10.63 1 14.26 1 18 1 C17.01 2.485 17.01 2.485 16 4 C13.04935852 4.2208564 10.31631769 4.28060989 7.375 4.1875 C6.57320312 4.17396484 5.77140625 4.16042969 4.9453125 4.14648438 C2.96325622 4.11109051 0.98154449 4.05728234 -1 4 C-0.67 2.68 -0.34 1.36 0 0 Z " fill="#720202" transform="translate(132,191)"/>
<path d="M0 0 C0.33 0.66 0.66 1.32 1 2 C-1.31 2 -3.62 2 -6 2 C-6 2.99 -6 3.98 -6 5 C-6.99 5 -7.98 5 -9 5 C-8.67 6.32 -8.34 7.64 -8 9 C-9.65 9 -11.3 9 -13 9 C-13.66 7.68 -14.32 6.36 -15 5 C-12.69 4.34 -10.38 3.68 -8 3 C-8.66 2.34 -9.32 1.68 -10 1 C-6.7 0.67 -3.4 0.34 0 0 Z " fill="#832C2E" transform="translate(183,91)"/>
<path d="M0 0 C1.77111844 0.47811177 3.54188483 0.9575278 5.3125 1.4375 C6.29863281 1.70433594 7.28476563 1.97117187 8.30078125 2.24609375 C10.21517526 2.78079425 12.11433615 3.37144538 14 4 C14 4.66 14 5.32 14 6 C12.35 6.66 10.7 7.32 9 8 C9.33 6.68 9.66 5.36 10 4 C8.02 4.66 6.04 5.32 4 6 C3.67 5.01 3.34 4.02 3 3 C2.01 2.67 1.02 2.34 0 2 C0 1.34 0 0.68 0 0 Z " fill="#701114" transform="translate(160,67)"/>
<path d="M0 0 C4.10346546 0.54712873 5.80917623 2.58121045 8.8125 5.375 C8.4825 6.035 8.1525 6.695 7.8125 7.375 C7.4825 7.045 7.1525 6.715 6.8125 6.375 C4.14191149 6.23384839 1.48817762 6.33252893 -1.1875 6.375 C-1.8475 4.725 -2.5075 3.075 -3.1875 1.375 C-2.1875 0.375 -2.1875 0.375 0 0 Z " fill="#7A1213" transform="translate(113.1875,137.625)"/>
<path d="M0 0 C3.875 0.875 3.875 0.875 5 2 C5.04092937 4.33297433 5.04241723 6.66705225 5 9 C4.01 9 3.02 9 2 9 C-0.29013653 5.5647952 -0.17842973 4.014669 0 0 Z " fill="#DFDFDF" transform="translate(231,234)"/>
<path d="M0 0 C2.98704569 0.49784095 4.39324263 1.26216175 7 3 C7 3.66 7 4.32 7 5 C4.1875 6.125 4.1875 6.125 1 7 C0.01 6.34 -0.98 5.68 -2 5 C-1.125 1.125 -1.125 1.125 0 0 Z " fill="#1D1E1E" transform="translate(205,230)"/>
<path d="M0 0 C0.99 0 1.98 0 3 0 C4.93607846 2.8471742 4.98954766 4.15417196 4.75 7.6875 C4.5025 8.780625 4.255 9.87375 4 11 C3.01 11.495 3.01 11.495 2 12 C1.87625 11.071875 1.87625 11.071875 1.75 10.125 C1.18741541 7.81562433 1.18741541 7.81562433 -1.0625 6.75 C-1.701875 6.5025 -2.34125 6.255 -3 6 C0 6 0 6 2 7 C1.65555119 4.52733235 1.65555119 4.52733235 1 2 C0.34 1.67 -0.32 1.34 -1 1 C-0.67 0.67 -0.34 0.34 0 0 Z " fill="#A7871C" transform="translate(244,174)"/>
<path d="M0 0 C1.5003479 0.07069702 1.5003479 0.07069702 3.03100586 0.14282227 C4.1105957 0.19116211 5.19018555 0.23950195 6.30249023 0.28930664 C7.43879883 0.34538086 8.57510742 0.40145508 9.74584961 0.45922852 C11.45611328 0.53753906 11.45611328 0.53753906 13.20092773 0.61743164 C16.02864984 0.74757785 18.85605961 0.8825573 21.68334961 1.02172852 C21.68334961 1.35172852 21.68334961 1.68172852 21.68334961 2.02172852 C17.33254007 3.08601656 13.07519477 3.20514571 8.62084961 3.20922852 C7.91379883 3.22147461 7.20674805 3.2337207 6.47827148 3.24633789 C2.7142044 3.2569409 -0.12461951 3.11934881 -3.31665039 1.02172852 C-2.31665039 0.02172852 -2.31665039 0.02172852 0 0 Z " fill="#F7DDD9" transform="translate(195.316650390625,169.978271484375)"/>
<path d="M0 0 C0.66 0 1.32 0 2 0 C2.66 2.31 3.32 4.62 4 7 C2.25 8.125 2.25 8.125 0 9 C-2.25 8.125 -2.25 8.125 -4 7 C-3.525625 6.401875 -3.05125 5.80375 -2.5625 5.1875 C-0.83534256 2.99617076 -0.83534256 2.99617076 0 0 Z " fill="#800101" transform="translate(214,114)"/>
<path d="M0 0 C10.55808656 -0.18451025 10.55808656 -0.18451025 15 1 C14.375 2.875 14.375 2.875 13 5 C9.875 6.25 9.875 6.25 7 7 C7 6.01 7 5.02 7 4 C6.34 3.67 5.68 3.34 5 3 C6.32 3 7.64 3 9 3 C7.50256881 1.50256881 6.01175761 1.66797307 3.9375 1.4375 C2.638125 1.293125 1.33875 1.14875 0 1 C0 0.67 0 0.34 0 0 Z " fill="#EED8D4" transform="translate(232,161)"/>
<path d="M0 0 C0.99 0.33 1.98 0.66 3 1 C3.59732819 3.76264289 4 6.16032769 4 9 C3.34 9 2.68 9 2 9 C1.67 9.66 1.34 10.32 1 11 C-0.32 10.01 -1.64 9.02 -3 8 C-1.625 6.5 -1.625 6.5 0 5 C0.66 5 1.32 5 2 5 C2 4.34 2 3.68 2 3 C0.68 2.67 -0.64 2.34 -2 2 C-1.34 1.34 -0.68 0.68 0 0 Z " fill="#6F1315" transform="translate(162,124)"/>
<path d="M0 0 C2.52631142 3.12781414 4.42373366 6.29577411 6 10 C5.67 10.99 5.34 11.98 5 13 C3.68 12.34 2.36 11.68 1 11 C1.66 10.01 2.32 9.02 3 8 C1.68 7.34 0.36 6.68 -1 6 C-0.67 4.02 -0.34 2.04 0 0 Z " fill="#7B1317" transform="translate(180,179)"/>
<path d="M0 0 C0.66 0 1.32 0 2 0 C2 1.65 2 3.3 2 5 C1.01 5.495 1.01 5.495 0 6 C0 7.98 0 9.96 0 12 C0.66 12.33 1.32 12.66 2 13 C1.01 13 0.02 13 -1 13 C-2.85274701 9.87348943 -3.45353362 7.62826895 -3 4 C-1.625 1.6875 -1.625 1.6875 0 0 Z " fill="#B59F31" transform="translate(236,174)"/>
<path d="M0 0 C0.33 0 0.66 0 1 0 C1.04898438 1.08539063 1.09796875 2.17078125 1.1484375 3.2890625 C1.22351986 4.73439784 1.29906528 6.17970919 1.375 7.625 C1.4059375 8.33785156 1.436875 9.05070312 1.46875 9.78515625 C1.71020155 14.17152608 2.39342731 17.8594834 4 22 C3.34 22.66 2.68 23.32 2 24 C0.15467286 18.52940419 -0.25309068 13.81180072 -0.125 8.0625 C-0.11597656 7.28326172 -0.10695312 6.50402344 -0.09765625 5.70117188 C-0.07433691 3.80064553 -0.03847586 1.90027992 0 0 Z " fill="#F2D6D3" transform="translate(147,101)"/>
<path d="M0 0 C2.0625 0.4375 2.0625 0.4375 4 1 C4 1.66 4 2.32 4 3 C3.01 3.495 3.01 3.495 2 4 C3.65 4 5.3 4 7 4 C7.33 5.65 7.66 7.3 8 9 C7.34 8.34 6.68 7.68 6 7 C3.6670386 6.95833998 1.3329614 6.95833998 -1 7 C-1.66 6.67 -2.32 6.34 -3 6 C-1.125 1.125 -1.125 1.125 0 0 Z " fill="#7B1414" transform="translate(189,105)"/>
<path d="M0 0 C0.33 0.99 0.66 1.98 1 3 C-4.958467 5.9792335 -14.55356031 3.67476752 -21 3 C-21 2.67 -21 2.34 -21 2 C-18.06281233 1.80538512 -15.12550068 1.61902407 -12.1875 1.4375 C-11.35412109 1.38142578 -10.52074219 1.32535156 -9.66210938 1.26757812 C-8.85966797 1.21923828 -8.05722656 1.17089844 -7.23046875 1.12109375 C-6.49207764 1.0739624 -5.75368652 1.02683105 -4.99291992 0.97827148 C-3 1 -3 1 0 2 C0 1.34 0 0.68 0 0 Z " fill="#401E1C" transform="translate(154,195)"/>
<path d="M0 0 C1.32 0.99 2.64 1.98 4 3 C4.99 2.34 5.98 1.68 7 1 C9.33199388 0.92094936 11.66832622 0.91201231 14 1 C14 1.33 14 1.66 14 2 C13.113125 2.2475 12.22625 2.495 11.3125 2.75 C7.89572865 4.03934768 5.7202252 5.59980129 3 8 C0 3.375 0 3.375 0 0 Z " fill="#F8E4E5" transform="translate(106,142)"/>
<path d="M0 0 C1.9375 0.5625 1.9375 0.5625 4 2 C4.75 5.625 4.75 5.625 5 9 C4.01 9 3.02 9 2 9 C-0.29013653 5.5647952 -0.17842973 4.014669 0 0 Z " fill="#272324" transform="translate(153,234)"/>
<path d="M0 0 C0.66 1.32 1.32 2.64 2 4 C2.66 4 3.32 4 4 4 C4.33 5.98 4.66 7.96 5 10 C3.35 9.67 1.7 9.34 0 9 C0 6.03 0 3.06 0 0 Z " fill="#4D1D1D" transform="translate(88,196)"/>
<path d="M0 0 C0.66 0 1.32 0 2 0 C2 0.66 2 1.32 2 2 C2.99 2 3.98 2 5 2 C6.125 4.25 6.125 4.25 7 7 C6.125 9.3125 6.125 9.3125 5 11 C0 3.5 0 3.5 0 0 Z " fill="#7A1517" transform="translate(171,179)"/>
<path d="M0 0 C3.875 1.875 3.875 1.875 5 3 C5.04080783 4.99958364 5.04254356 7.00045254 5 9 C3.0625 8.4375 3.0625 8.4375 1 7 C0.25 3.375 0.25 3.375 0 0 Z " fill="#F0F0F0" transform="translate(67,234)"/>
<path d="M0 0 C3.875 1.875 3.875 1.875 5 3 C5.04080783 4.99958364 5.04254356 7.00045254 5 9 C3.0625 8.4375 3.0625 8.4375 1 7 C0.25 3.375 0.25 3.375 0 0 Z " fill="#F2F2F2" transform="translate(265,234)"/>
<path d="M0 0 C3.16115776 1.36983503 3.9927092 1.9890638 6 5 C5.01 5 4.02 5 3 5 C3 5.66 3 6.32 3 7 C0.525 6.01 0.525 6.01 -2 5 C-1.125 1.125 -1.125 1.125 0 0 Z " fill="#0E0E0E" transform="translate(88,230)"/>
<path d="M0 0 C0.66 0 1.32 0 2 0 C2.33 1.98 2.66 3.96 3 6 C4.134375 6.268125 5.26875 6.53625 6.4375 6.8125 C7.613125 7.204375 8.78875 7.59625 10 8 C10.33 8.99 10.66 9.98 11 11 C9.53633658 10.60246179 8.0791065 10.18118616 6.625 9.75 C5.81289062 9.51796875 5.00078125 9.2859375 4.1640625 9.046875 C2 8 2 8 0.7109375 6.140625 C0 4 0 4 0 0 Z " fill="#481C18" transform="translate(105,196)"/>
<path d="M0 0 C1.65 0 3.3 0 5 0 C2.61666905 2.74515677 0.31090681 3.89080018 -3.0625 5.1875 C-3.94035156 5.53167969 -4.81820312 5.87585938 -5.72265625 6.23046875 C-8 7 -8 7 -10 7 C-10 6.01 -10 5.02 -10 4 C-9.04287109 3.81824219 -9.04287109 3.81824219 -8.06640625 3.6328125 C-7.24011719 3.46523437 -6.41382813 3.29765625 -5.5625 3.125 C-4.73878906 2.96257812 -3.91507813 2.80015625 -3.06640625 2.6328125 C-2.38449219 2.42398438 -1.70257813 2.21515625 -1 2 C-0.67 1.34 -0.34 0.68 0 0 Z " fill="#72191C" transform="translate(148,182)"/>
<path d="M0 0 C0 2 0 2 -2.25 4.5625 C-4.83532684 6.8540397 -5.77492819 7.42409432 -9 8 C-9.33 8.66 -9.66 9.32 -10 10 C-10.99 9.34 -11.98 8.68 -13 8 C-11.2126038 6.66094733 -9.41995047 5.32890934 -7.625 4 C-6.62726563 3.2575 -5.62953125 2.515 -4.6015625 1.75 C-2 0 -2 0 0 0 Z " fill="#7B1E21" transform="translate(122,159)"/>
<path d="M0 0 C3.26008643 3.16952847 6.22237877 6.39937989 9 10 C7.68 10.33 6.36 10.66 5 11 C4.15504811 9.92570402 3.32445142 8.84010798 2.5 7.75 C2.0359375 7.14671875 1.571875 6.5434375 1.09375 5.921875 C0 4 0 4 0 0 Z " fill="#7A2E35" transform="translate(190,68)"/>
<path d="M0 0 C0.86625 0.2784375 0.86625 0.2784375 1.75 0.5625 C4.20692525 1.04023546 5.64397534 0.75729364 8 0 C8 1.32 8 2.64 8 4 C7.34 4 6.68 4 6 4 C6.33 5.32 6.66 6.64 7 8 C1.125 3.375 1.125 3.375 0 0 Z " fill="#F8EEED" transform="translate(190,67)"/>
<path d="M0 0 C1.875 0.625 1.875 0.625 4 2 C5.25 5.125 5.25 5.125 6 8 C4.6875 9.5 4.6875 9.5 3 11 C2.01 11 1.02 11 0 11 C-0.33 10.01 -0.66 9.02 -1 8 C0.32 8 1.64 8 3 8 C3.34626591 4.99969942 3.34626591 4.99969942 1.5 3.4375 C1.005 2.963125 0.51 2.48875 0 2 C0 1.34 0 0.68 0 0 Z " fill="#630A0B" transform="translate(172,216)"/>
<path d="M0 0 C1.79508501 0.42325583 3.5860283 0.86410735 5.375 1.3125 C6.37273437 1.55613281 7.37046875 1.79976562 8.3984375 2.05078125 C11 3 11 3 13 6 C7.58609132 5.53328373 3.79482068 4.75702189 -1 2 C-0.67 1.34 -0.34 0.68 0 0 Z " fill="#762021" transform="translate(99,210)"/>
<path d="M0 0 C0.845625 0.309375 1.69125 0.61875 2.5625 0.9375 C6.0497854 2.01538821 9.38177535 2.56581304 13 3 C13 3.99 13 4.98 13 6 C11.906875 5.814375 10.81375 5.62875 9.6875 5.4375 C6.06375867 4.7421932 6.06375867 4.7421932 3 6 C2.01 4.02 1.02 2.04 0 0 Z " fill="#721C1F" transform="translate(122,145)"/>
<path d="M0 0 C6.75 2.625 6.75 2.625 9 6 C8.01 6.495 8.01 6.495 7 7 C6.67 6.67 6.34 6.34 6 6 C5.67 6.99 5.34 7.98 5 9 C0 3.375 0 3.375 0 0 Z " fill="#781318" transform="translate(196,77)"/>
<path d="M0 0 C0.66 0.33 1.32 0.66 2 1 C1.52433594 1.76570312 1.52433594 1.76570312 1.0390625 2.546875 C-0.33976273 5.80214659 -0.4293573 8.72843132 -0.625 12.25 C-0.69976562 13.51328125 -0.77453125 14.7765625 -0.8515625 16.078125 C-0.90054688 17.04234375 -0.94953125 18.0065625 -1 19 C-1.33 19 -1.66 19 -2 19 C-2 14.71 -2 10.42 -2 6 C-3.32 5.67 -4.64 5.34 -6 5 C-5.01 5 -4.02 5 -3 5 C-2.5359375 4.0409375 -2.5359375 4.0409375 -2.0625 3.0625 C-1 1 -1 1 0 0 Z " fill="#5A5A5A" transform="translate(97,230)"/>
<path d="M0 0 C5.75 0.875 5.75 0.875 8 2 C7.67 2.66 7.34 3.32 7 4 C6.01 4.33 5.02 4.66 4 5 C2.33289654 6.49985609 2.33289654 6.49985609 1 8 C0.34 6.68 -0.32 5.36 -1 4 C-0.01 3.01 0.98 2.02 2 1 C1.34 0.67 0.68 0.34 0 0 Z " fill="#7F3A3C" transform="translate(151,190)"/>
<path d="M0 0 C2 2 2 2 2 5 C-2.455 5.495 -2.455 5.495 -7 6 C-7.33 4.68 -7.66 3.36 -8 2 C-6.68 2 -5.36 2 -4 2 C-1.79932579 1.06716704 -1.79932579 1.06716704 0 0 Z " fill="#F9E2DF" transform="translate(173,185)"/>
<path d="M0 0 C1.8125 2.5 1.8125 2.5 3 5 C2.34 5 1.68 5 1 5 C0.67 4.34 0.34 3.68 0 3 C-6.435 3.495 -6.435 3.495 -13 4 C-12 2 -12 2 -8.75 0.875 C-2.72727273 -0.53030303 -2.72727273 -0.53030303 0 0 Z " fill="#F3D8D7" transform="translate(169,176)"/>
<path d="M0 0 C0.33 0.66 0.66 1.32 1 2 C-0.134375 1.773125 -1.26875 1.54625 -2.4375 1.3125 C-7.45448598 0.64835517 -11.39720608 2.11413305 -16 4 C-15.67 2.68 -15.34 1.36 -15 0 C-9.47064444 -1.59736938 -5.40733909 -2.70366955 0 0 Z " fill="#761A1E" transform="translate(171,176)"/>
<path d="M0 0 C6.48847457 1.16792542 9.15852574 3.73732098 13 9 C12.67 9.66 12.34 10.32 12 11 C10.56145942 9.73034469 9.12420873 8.45922782 7.6875 7.1875 C6.88699219 6.47980469 6.08648437 5.77210937 5.26171875 5.04296875 C3.45016838 3.40662878 1.70318297 1.74727832 0 0 Z " fill="#EFC4BF" transform="translate(189,77)"/>
<path d="M0 0 C0 1.98 0 3.96 0 6 C-0.66 6 -1.32 6 -2 6 C-2 5.01 -2 4.02 -2 3 C-4.97 2.505 -4.97 2.505 -8 2 C-8.33 2.66 -8.66 3.32 -9 4 C-8.6875 2.0625 -8.6875 2.0625 -8 0 C-4.71023192 -1.09658936 -3.28696233 -0.79953138 0 0 Z " fill="#701F21" transform="translate(175,190)"/>
<path d="M0 0 C0.66666667 2.66666667 1.33333333 5.33333333 2 8 C1.01 8.33 0.02 8.66 -1 9 C-1.33 9.66 -1.66 10.32 -2 11 C-2.66 11 -3.32 11 -4 11 C-3.48964169 6.6109185 -2.47785723 3.66291938 0 0 Z " fill="#7D1F22" transform="translate(93,182)"/>
<path d="M0 0 C0.66 0.33 1.32 0.66 2 1 C0.515 2.485 0.515 2.485 -1 4 C0.65 4 2.3 4 4 4 C-0.1795645 6.78637633 -2.14668677 5.79562512 -7 5 C-7 4.34 -7 3.68 -7 3 C-4.69631264 1.93347808 -2.35981813 0.93578995 0 0 Z " fill="#EAC7C7" transform="translate(145,186)"/>
<path d="M0 0 C1.65 0 3.3 0 5 0 C4.67 1.65 4.34 3.3 4 5 C4.99 5 5.98 5 7 5 C7 5.66 7 6.32 7 7 C4.69 6.67 2.38 6.34 0 6 C0 4.02 0 2.04 0 0 Z " fill="#F4F3EA" transform="translate(233,166)"/>
<path d="M0 0 C2.93447357 2.93447357 2.46158423 6.18259456 2.625 10.125 C2.66367188 10.87910156 2.70234375 11.63320312 2.7421875 12.41015625 C2.83651031 14.27303184 2.91934662 16.13648255 3 18 C2.34 18 1.68 18 1 18 C0.93941406 17.43152344 0.87882812 16.86304688 0.81640625 16.27734375 C0.40864515 12.5196684 -0.03219289 8.79718482 -0.625 5.0625 C-1 2 -1 2 0 0 Z " fill="#ECD2CF" transform="translate(82,121)"/>
<path d="M0 0 C0.33 0 0.66 0 1 0 C1.33 2.97 1.66 5.94 2 9 C4.475 9.99 4.475 9.99 7 11 C7 12.98 7 14.96 7 17 C6.67 17 6.34 17 6 17 C6 15.35 6 13.7 6 12 C5.38125 12.20625 4.7625 12.4125 4.125 12.625 C3.42375 12.74875 2.7225 12.8725 2 13 C-0.47532211 10.52467789 -0.38704795 9.36068317 -0.6875 5.9375 C-0.77386719 5.03902344 -0.86023438 4.14054687 -0.94921875 3.21484375 C-0.96597656 2.48394531 -0.98273438 1.75304687 -1 1 C-0.67 0.67 -0.34 0.34 0 0 Z " fill="#822F2F" transform="translate(217,107)"/>
<path d="M0 0 C0.33 0.66 0.66 1.32 1 2 C-1.35968744 4.09749995 -2.54616994 4.96905704 -5.75 5.1875 C-6.86375 5.0946875 -6.86375 5.0946875 -8 5 C-8 2 -8 2 -7 1 C-4.67182036 0.63239269 -2.3381615 0.29758419 0 0 Z " fill="#0B0B0B" transform="translate(62,224)"/>
<path d="M0 0 C1.81242052 -0.02687279 3.62495233 -0.04633715 5.4375 -0.0625 C6.44683594 -0.07410156 7.45617187 -0.08570313 8.49609375 -0.09765625 C11 0 11 0 12 1 C12.04063832 2.66617115 12.042721 4.33388095 12 6 C9.69 5.34 7.38 4.68 5 4 C5.99 3.67 6.98 3.34 8 3 C8.66 2.67 9.32 2.34 10 2 C6.7 1.67 3.4 1.34 0 1 C0 0.67 0 0.34 0 0 Z " fill="#863C3D" transform="translate(188,191)"/>
<path d="M0 0 C1.9375 0.375 1.9375 0.375 4 1 C4.33 1.66 4.66 2.32 5 3 C4.01 3 3.02 3 2 3 C1.67 3.66 1.34 4.32 1 5 C-0.32 5 -1.64 5 -3 5 C-3.33 6.32 -3.66 7.64 -4 9 C-4.66 8.01 -5.32 7.02 -6 6 C-5.67 5.01 -5.34 4.02 -5 3 C-3.68 3 -2.36 3 -1 3 C-0.67 2.01 -0.34 1.02 0 0 Z " fill="#823F3F" transform="translate(237,162)"/>
<path d="M0 0 C2 2 2 2 2.1953125 4.1640625 C2.17210937 4.97617188 2.14890625 5.78828125 2.125 6.625 C2.10695312 7.44226563 2.08890625 8.25953125 2.0703125 9.1015625 C2.03550781 10.04128906 2.03550781 10.04128906 2 11 C1.67 10.01 1.34 9.02 1 8 C-0.32 8 -1.64 8 -3 8 C-2.25 2.25 -2.25 2.25 0 0 Z " fill="#292522" transform="translate(187,232)"/>
<path d="M0 0 C0.99 0.33 1.98 0.66 3 1 C2.47599609 1.74443359 2.47599609 1.74443359 1.94140625 2.50390625 C-1.14110751 7.10584605 -2.65389941 10.46239061 -3 16 C-3.33 16 -3.66 16 -4 16 C-4.54330269 9.34454208 -3.77304004 5.54165256 0 0 Z " fill="#FCE6E2" transform="translate(92,180)"/>
<path d="M0 0 C1.9375 1.1875 1.9375 1.1875 3.9375 3.1875 C-0.0225 3.1875 -3.9825 3.1875 -8.0625 3.1875 C-3.49728261 -1.37771739 -3.49728261 -1.37771739 0 0 Z " fill="#FCEFED" transform="translate(195.0625,187.8125)"/>
<path d="M0 0 C-0.33 1.32 -0.66 2.64 -1 4 C-4.37503669 2.8141763 -6.64722731 1.72426311 -9 -1 C-5.79937313 -2.60031344 -3.27728194 -1.03173691 0 0 Z " fill="#77171A" transform="translate(59,76)"/>
<path d="M0 0 C0.33 0.66 0.66 1.32 1 2 C0 5 0 5 -2 6 C-2.99 7.485 -2.99 7.485 -4 9 C-4.12375 8.030625 -4.2475 7.06125 -4.375 6.0625 C-4.58125 5.051875 -4.7875 4.04125 -5 3 C-5.66 2.67 -6.32 2.34 -7 2 C-4.69 1.34 -2.38 0.68 0 0 Z " fill="#8C2624" transform="translate(133,182)"/>
<path d="M0 0 C1.625 1 1.625 1 3 3 C2.63474926 6.96905807 1.83980157 10.16019843 -1 13 C-1 11.35 -1 9.7 -1 8 C-0.34 8 0.32 8 1 8 C1 7.01 1 6.02 1 5 C0.34 5 -0.32 5 -1 5 C-0.67 3.35 -0.34 1.7 0 0 Z " fill="#7A1214" transform="translate(202,143)"/>
<path d="M0 0 C0 0.66 0 1.32 0 2 C0.66 2 1.32 2 2 2 C1.67 2.66 1.34 3.32 1 4 C0.01 3.67 -0.98 3.34 -2 3 C-3.89470816 2.9314505 -5.7916834 2.91519628 -7.6875 2.9375 C-8.68136719 2.94652344 -9.67523438 2.95554688 -10.69921875 2.96484375 C-11.45847656 2.97644531 -12.21773438 2.98804688 -13 3 C-13 2.34 -13 1.68 -13 1 C-8.60563789 0.14256349 -4.47427924 -0.08948558 0 0 Z " fill="#761C20" transform="translate(101,134)"/>
<path d="M0 0 C1.74627478 2.61941217 2.38722388 4.03824877 3 7 C1.02 7.33 -0.96 7.66 -3 8 C-3 7.34 -3 6.68 -3 6 C-2.34 6 -1.68 6 -1 6 C-1.20625 5.38125 -1.4125 4.7625 -1.625 4.125 C-1.74875 3.42375 -1.8725 2.7225 -2 2 C-1.34 1.34 -0.68 0.68 0 0 Z " fill="#30282B" transform="translate(147,240)"/>
<path d="M0 0 C4.75 0.875 4.75 0.875 7 2 C7 2.99 7 3.98 7 5 C4.69 5.66 2.38 6.32 0 7 C0.33 6.01 0.66 5.02 1 4 C1.66 4 2.32 4 3 4 C2.01 2.68 1.02 1.36 0 0 Z " fill="#EFCFCB" transform="translate(128,149)"/>
<path d="M0 0 C4.92127034 -0.16682272 8.50343896 -0.24828052 13 2 C12.34 2.66 11.68 3.32 11 4 C7.24574497 3.65238379 3.63049144 3.0165376 0 2 C0 1.34 0 0.68 0 0 Z " fill="#F5D7D8" transform="translate(64,113)"/>
<path d="M0 0 C2.62527189 -0.05382106 5.24944713 -0.09358313 7.875 -0.125 C8.62136719 -0.14175781 9.36773437 -0.15851563 10.13671875 -0.17578125 C12.09194461 -0.1933959 14.04742021 -0.10320189 16 0 C16.66 0.66 17.32 1.32 18 2 C16.68 2.33 15.36 2.66 14 3 C14 2.34 14 1.68 14 1 C13.360625 1.165 12.72125 1.33 12.0625 1.5 C8.02413348 2.15932515 4.08192742 2.08003779 0 2 C0 1.34 0 0.68 0 0 Z " fill="#FBF1EB" transform="translate(119,217)"/>
<path d="M0 0 C2.875 0.1875 2.875 0.1875 6 1 C7.375 3.5625 7.375 3.5625 8 6 C7.34 6.66 6.68 7.32 6 8 C4.02 5.36 2.04 2.72 0 0 Z " fill="#752222" transform="translate(103,138)"/>
<path d="M0 0 C0 1.98 0 3.96 0 6 C-0.99 6 -1.98 6 -3 6 C-2.67 5.01 -2.34 4.02 -2 3 C-4.31 3 -6.62 3 -9 3 C-5.87496336 0.91664224 -3.72863529 0 0 0 Z " fill="#751415" transform="translate(63,71)"/>
<path d="M0 0 C3.63 0 7.26 0 11 0 C10.67 0.99 10.34 1.98 10 3 C10.66 3.33 11.32 3.66 12 4 C7.545 3.01 7.545 3.01 3 2 C2.67 2.99 2.34 3.98 2 5 C2 3.68 2 2.36 2 1 C1.34 0.67 0.68 0.34 0 0 Z " fill="#381F1C" transform="translate(141,247)"/>
<path d="M0 0 C2.97 0.495 2.97 0.495 6 1 C6 1.99 6 2.98 6 4 C3.69 4 1.38 4 -1 4 C-0.67 2.68 -0.34 1.36 0 0 Z " fill="#F3DDDB" transform="translate(167,192)"/>
<path d="M0 0 C2.33944736 0.28730055 4.6739143 0.61936779 7 1 C4.3534665 3.6465335 1.43778736 4.59941997 -2 6 C-1.125 1.125 -1.125 1.125 0 0 Z " fill="#711415" transform="translate(110,186)"/>
<path d="M0 0 C2.5 1.375 2.5 1.375 5 3 C5 3.66 5 4.32 5 5 C3.02 5.66 1.04 6.32 -1 7 C-0.67 4.69 -0.34 2.38 0 0 Z " fill="#F6C213" transform="translate(240,179)"/>
<path d="M0 0 C0.268125 0.556875 0.53625 1.11375 0.8125 1.6875 C2.00329541 4.09821537 2.00329541 4.09821537 3.6875 6.625 C4.120625 7.40875 4.55375 8.1925 5 9 C4.67 9.66 4.34 10.32 4 11 C3.01 10.67 2.02 10.34 1 10 C0.234375 8.22265625 0.234375 8.22265625 -0.25 6.0625 C-0.42015625 5.35222656 -0.5903125 4.64195313 -0.765625 3.91015625 C-1 2 -1 2 0 0 Z " fill="#791C1F" transform="translate(187,113)"/>
<path d="M0 0 C3.8063457 0.67170806 7.35206816 1.72746564 11 3 C11 3.33 11 3.66 11 4 C9.54119891 3.85892253 8.08296449 3.71197585 6.625 3.5625 C5.40683594 3.44068359 5.40683594 3.44068359 4.1640625 3.31640625 C2 3 2 3 0 2 C0 1.34 0 0.68 0 0 Z " fill="#600A10" transform="translate(144,250)"/>
<path d="M0 0 C0.66 1.32 1.32 2.64 2 4 C0.71034824 5.37562854 -0.62689293 6.70766393 -2 8 C-2.66 8 -3.32 8 -4 8 C-2.25 2.25 -2.25 2.25 0 0 Z " fill="#730D0F" transform="translate(97,178)"/>
<path d="M0 0 C2.97 0.33 5.94 0.66 9 1 C9 1.66 9 2.32 9 3 C5.52176885 4.15941038 3.54104422 3.70820884 0 3 C0 2.01 0 1.02 0 0 Z " fill="#F8FDF1" transform="translate(241,167)"/>
<path d="M0 0 C0.33 0.66 0.66 1.32 1 2 C2.66072849 2.68132451 4.327767 3.34742127 6 4 C6.66 4.66 7.32 5.32 8 6 C6 7 6 7 3.4375 6.375 C1 5 1 5 0.1875 2.375 C0.125625 1.59125 0.06375 0.8075 0 0 Z " fill="#721B1C" transform="translate(150,128)"/>
<path d="M0 0 C0.33 0.99 0.66 1.98 1 3 C0.01 3 -0.98 3 -2 3 C-2 3.66 -2 4.32 -2 5 C-4.31 5 -6.62 5 -9 5 C-8.360625 4.896875 -7.72125 4.79375 -7.0625 4.6875 C-6.381875 4.460625 -5.70125 4.23375 -5 4 C-4.67 3.01 -4.34 2.02 -4 1 C-2 0 -2 0 0 0 Z " fill="#F9EAEA" transform="translate(191,84)"/>
<path d="M0 0 C0.33 0 0.66 0 1 0 C1 3.3 1 6.6 1 10 C1.66 10 2.32 10 3 10 C3 10.66 3 11.32 3 12 C1.68 12.33 0.36 12.66 -1 13 C-0.67 8.71 -0.34 4.42 0 0 Z " fill="#161616" transform="translate(116,233)"/>
<path d="M0 0 C0.33 1.32 0.66 2.64 1 4 C1.66 4.33 2.32 4.66 3 5 C3 5.99 3 6.98 3 8 C1.35 8.66 -0.3 9.32 -2 10 C-1.34 6.7 -0.68 3.4 0 0 Z " fill="#F8DFE0" transform="translate(204,146)"/>
<path d="M0 0 C2.375 0.1875 2.375 0.1875 5 1 C6.3125 3.5625 6.3125 3.5625 7 6 C4 6 4 6 1.8125 4.125 C0 2 0 2 0 0 Z " fill="#F3D6D1" transform="translate(204,122)"/>
<path d="M0 0 C1.485 0.99 1.485 0.99 3 2 C3.66 2 4.32 2 5 2 C4.6875 3.9375 4.6875 3.9375 4 6 C3.01 6.33 2.02 6.66 1 7 C-0.0625 5.1875 -0.0625 5.1875 -1 3 C-0.67 2.01 -0.34 1.02 0 0 Z " fill="#F5DCDB" transform="translate(161,107)"/>
<path d="M0 0 C1.32 0.33 2.64 0.66 4 1 C4.33 4.3 4.66 7.6 5 11 C2.77174356 8.77174356 2.30760631 7.34238372 1.375 4.375 C1.11460938 3.55773437 0.85421875 2.74046875 0.5859375 1.8984375 C0.39257812 1.27195312 0.19921875 0.64546875 0 0 Z " fill="#701617" transform="translate(64,87)"/>
<path d="M0 0 C2.31 0 4.62 0 7 0 C6.67 1.65 6.34 3.3 6 5 C4.68 4.67 3.36 4.34 2 4 C2.66 4 3.32 4 4 4 C4 3.34 4 2.68 4 2 C2.68 1.34 1.36 0.68 0 0 Z " fill="#6D161A" transform="translate(180,89)"/>
<path d="M0 0 C3.875 4.75 3.875 4.75 5 7 C2.64828869 6.40138258 0.3140622 5.73075648 -2 5 C-2.33 4.34 -2.66 3.68 -3 3 C-2.01 2.01 -1.02 1.02 0 0 Z " fill="#F8E7DF" transform="translate(190,72)"/>
<path d="M0 0 C0.99 0.33 1.98 0.66 3 1 C2.34 1 1.68 1 1 1 C0.67 2.32 0.34 3.64 0 5 C-1.32 5.33 -2.64 5.66 -4 6 C-4 5.01 -4 4.02 -4 3 C-2.1875 1.25 -2.1875 1.25 0 0 Z " fill="#270302" transform="translate(177,224)"/>
<path d="M0 0 C0.33 0 0.66 0 1 0 C1.33 2.31 1.66 4.62 2 7 C3.32 7.33 4.64 7.66 6 8 C6 8.66 6 9.32 6 10 C4.34385343 10.38218767 2.67542976 10.71395102 1 11 C0 10 0 10 -0.09765625 7.71484375 C-0.08605469 6.79832031 -0.07445312 5.88179687 -0.0625 4.9375 C-0.05347656 4.01839844 -0.04445312 3.09929687 -0.03515625 2.15234375 C-0.02355469 1.44207031 -0.01195312 0.73179687 0 0 Z " fill="#EAC8C9" transform="translate(218,172)"/>
<path d="M0 0 C0.66 0.33 1.32 0.66 2 1 C2 2.65 2 4.3 2 6 C1.01 6.33 0.02 6.66 -1 7 C-1.625 5.1875 -1.625 5.1875 -2 3 C-1.34 2.01 -0.68 1.02 0 0 Z " fill="#878787" transform="translate(234,245)"/>
<path d="M0 0 C0.66 0 1.32 0 2 0 C2 1.65 2 3.3 2 5 C0.68 5 -0.64 5 -2 5 C-1.125 1.125 -1.125 1.125 0 0 Z " fill="#D9D8D9" transform="translate(217,238)"/>
<path d="M0 0 C0.66 0 1.32 0 2 0 C2 1.65 2 3.3 2 5 C0.68 5 -0.64 5 -2 5 C-1.125 1.125 -1.125 1.125 0 0 Z " fill="#D6D6D6" transform="translate(110,238)"/>
<path d="M0 0 C-0.33 0.99 -0.66 1.98 -1 3 C-3.0625 3.6875 -3.0625 3.6875 -5 4 C-5 3.34 -5 2.68 -5 2 C-6.32 1.67 -7.64 1.34 -9 1 C-6.04335481 -0.4783226 -3.25770263 -0.06032783 0 0 Z " fill="#701214" transform="translate(153,191)"/>
<path d="M0 0 C0 1.98 0 3.96 0 6 C-2.475 5.01 -2.475 5.01 -5 4 C-5 3.34 -5 2.68 -5 2 C-1.125 0 -1.125 0 0 0 Z " fill="#ECC217" transform="translate(246,175)"/>
<path d="M0 0 C2.375 -0.1875 2.375 -0.1875 5 0 C5.66 0.99 6.32 1.98 7 3 C5 4 5 4 1.875 3.0625 C0.92625 2.711875 -0.0225 2.36125 -1 2 C-0.67 1.34 -0.34 0.68 0 0 Z " fill="#FAECE1" transform="translate(226,168)"/>
<path d="M0 0 C0 3.90838866 -1.50567876 5.11594107 -4 8 C-4.33 7.01 -4.66 6.02 -5 5 C-3.35 3.35 -1.7 1.7 0 0 Z " fill="#FCEEED" transform="translate(153,93)"/>
<path d="M0 0 C1 2 1 2 0.3125 4.5 C-1.15567038 7.29651501 -2.09303901 7.93411431 -5 9 C-3.7508258 5.54074837 -2.32472205 2.85306797 0 0 Z " fill="#F3D8D2" transform="translate(155,86)"/>
<path d="M0 0 C0 0.66 0 1.32 0 2 C0.66 2 1.32 2 2 2 C1.67 2.99 1.34 3.98 1 5 C-0.32 5 -1.64 5 -3 5 C-3.33 3.68 -3.66 2.36 -4 1 C-2 0 -2 0 0 0 Z " fill="#F2EDEC" transform="translate(174,73)"/>
<path d="M0 0 C0.66 0.33 1.32 0.66 2 1 C0.02 1.99 0.02 1.99 -2 3 C-2 4.32 -2 5.64 -2 7 C-3.32 6.34 -4.64 5.68 -6 5 C-4.02 3.35 -2.04 1.7 0 0 Z " fill="#433A3D" transform="translate(128,248)"/>
<path d="M0 0 C0.99 0 1.98 0 3 0 C3 2.64 3 5.28 3 8 C2.34 7.01 1.68 6.02 1 5 C0.34 5 -0.32 5 -1 5 C-0.67 3.35 -0.34 1.7 0 0 Z " fill="#C4C4C4" transform="translate(78,236)"/>
<path d="M0 0 C0.66 0.33 1.32 0.66 2 1 C1.67 1.99 1.34 2.98 1 4 C-2.5625 5.1875 -2.5625 5.1875 -6 6 C-4 4 -2 2 0 0 Z " fill="#282828" transform="translate(137,230)"/>
<path d="M0 0 C2.79872437 2.52788007 4.45773019 4.20411134 5 8 C3.68 8 2.36 8 1 8 C0.67 5.36 0.34 2.72 0 0 Z " fill="#CDC3C3" transform="translate(144,223)"/>
<path d="M0 0 C0 0.99 0 1.98 0 3 C-1.98 3 -3.96 3 -6 3 C-6 2.01 -6 1.02 -6 0 C-3.50907189 -1.24546405 -2.58919267 -0.7767578 0 0 Z " fill="#6B191A" transform="translate(131,192)"/>
<path d="M0 0 C3.44216672 2.6598561 3.99504674 5.90288286 5 10 C1.3735843 7.58238953 1.11068077 6.10097514 0 2 C0 1.34 0 0.68 0 0 Z " fill="#7A2426" transform="translate(195,128)"/>
<path d="M0 0 C0.33 0.99 0.66 1.98 1 3 C-0.65 4.32 -2.3 5.64 -4 7 C-4.33 6.01 -4.66 5.02 -5 4 C-3.35 2.68 -1.7 1.36 0 0 Z " fill="#6B1C22" transform="translate(220,94)"/>
<path d="M0 0 C1.32 0.99 2.64 1.98 4 3 C2.02 3.66 0.04 4.32 -2 5 C-2.33 4.01 -2.66 3.02 -3 2 C-2.01 2 -1.02 2 0 2 C0 1.34 0 0.68 0 0 Z " fill="#F1DFDA" transform="translate(167,96)"/>
<path d="M0 0 C0.66 0.33 1.32 0.66 2 1 C-0.97 4.96 -0.97 4.96 -4 9 C-4.33 7.68 -4.66 6.36 -5 5 C-4.01 4.67 -3.02 4.34 -2 4 C-0.79117904 1.99983534 -0.79117904 1.99983534 0 0 Z " fill="#771818" transform="translate(155,84)"/>
<path d="M0 0 C2.31 1.98 4.62 3.96 7 6 C6.01 6.33 5.02 6.66 4 7 C1 5 1 5 0.3125 2.375 C0.209375 1.59125 0.10625 0.8075 0 0 Z " fill="#F8E1DE" transform="translate(57,80)"/>
<path d="M0 0 C2.31 1.98 4.62 3.96 7 6 C6.01 6.66 5.02 7.32 4 8 C0 3.375 0 3.375 0 0 Z " fill="#85404D" transform="translate(185,73)"/>
<path d="M0 0 C1.32 0 2.64 0 4 0 C4 0.66 4 1.32 4 2 C4.99 2.33 5.98 2.66 7 3 C4.03 3 1.06 3 -2 3 C-1.34 2.67 -0.68 2.34 0 2 C0 1.34 0 0.68 0 0 Z " fill="#5E0D0B" transform="translate(160,252)"/>
<path d="M0 0 C0.66 0 1.32 0 2 0 C1.67 2.31 1.34 4.62 1 7 C0.34 6.01 -0.32 5.02 -1 4 C-1.99 4.66 -2.98 5.32 -4 6 C-2.84826645 3.53199953 -1.95216435 1.95216435 0 0 Z " fill="#121010" transform="translate(152,232)"/>
<path d="M0 0 C-1.75 4.875 -1.75 4.875 -4 6 C-4.66 5.67 -5.32 5.34 -6 5 C-6 4.34 -6 3.68 -6 3 C-2.53846154 0 -2.53846154 0 0 0 Z " fill="#141514" transform="translate(143,222)"/>
<path d="M0 0 C-0.33 1.32 -0.66 2.64 -1 4 C-3.62113708 4 -5.50935112 3.68707555 -8 3 C-5.22569089 1.15046059 -3.35957737 0 0 0 Z " fill="#E6E1E2" transform="translate(254,216)"/>
<path d="M0 0 C0.99 0.33 1.98 0.66 3 1 C2.01 2.32 1.02 3.64 0 5 C-0.99 4.67 -1.98 4.34 -3 4 C-3 3.34 -3 2.68 -3 2 C-2.01 1.34 -1.02 0.68 0 0 Z " fill="#3D3636" transform="translate(272,203)"/>
<path d="M0 0 C0.66 0.33 1.32 0.66 2 1 C2 1.66 2 2.32 2 3 C0.68 3 -0.64 3 -2 3 C-2.33 3.99 -2.66 4.98 -3 6 C-3.99 5.67 -4.98 5.34 -6 5 C-4.02 3.35 -2.04 1.7 0 0 Z " fill="#761718" transform="translate(108,168)"/>
<path d="M0 0 C1.65 0 3.3 0 5 0 C5 3 5 3 3 6 C2.34 6 1.68 6 1 6 C0.67 4.02 0.34 2.04 0 0 Z " fill="#731112" transform="translate(203,116)"/>
</svg>
