<?xml version="1.0" encoding="UTF-8"?>
<svg version="1.1" xmlns="http://www.w3.org/2000/svg" width="320" height="320">
<path d="M0 0 C2.24010446 -0.00217909 4.47970924 -0.0203693 6.71972656 -0.03930664 C18.77405681 -0.08777781 30.21622528 1.29648135 41.88378906 4.43530273 C42.69122559 4.6521875 43.49866211 4.86907227 44.33056641 5.0925293 C83.33533801 15.91137106 116.29603599 42.29015954 136.46972656 77.20874023 C149.62821482 100.88510565 155.7373585 125.55669881 155.75878906 152.56030273 C155.75946381 153.32196747 155.76013855 154.0836322 155.76083374 154.86837769 C155.74481928 166.23969526 155.28412836 177.11738337 152.50878906 188.18530273 C152.33718262 188.88284668 152.16557617 189.58039063 151.98876953 190.29907227 C146.72363567 211.22315653 137.1597163 231.45538086 123.50878906 248.18530273 C123.04956055 248.7513623 122.59033203 249.31742188 122.1171875 249.90063477 C100.38738205 276.52146332 70.97137259 295.08457878 37.50878906 303.18530273 C35.59259766 303.66483398 35.59259766 303.66483398 33.63769531 304.15405273 C11.5315334 309.02866161 -14.71999784 308.03832506 -36.49121094 302.18530273 C-37.35423828 301.95456055 -38.21726562 301.72381836 -39.10644531 301.48608398 C-58.56482395 296.06584292 -76.71722342 286.80821632 -92.49121094 274.18530273 C-93.0798291 273.71479492 -93.66844727 273.24428711 -94.27490234 272.75952148 C-102.38890532 266.19382706 -109.8365784 259.25901684 -116.49121094 251.18530273 C-117.13388916 250.40823975 -117.13388916 250.40823975 -117.78955078 249.61547852 C-139.99700222 222.32000099 -150.71354661 188.66876313 -150.74121094 153.81030273 C-150.74188568 153.048638 -150.74256042 152.28697327 -150.74325562 151.50222778 C-150.72724115 140.13091021 -150.26655024 129.2532221 -147.49121094 118.18530273 C-147.31960449 117.48775879 -147.14799805 116.79021484 -146.97119141 116.0715332 C-141.70605754 95.14744893 -132.14213818 74.91522461 -118.49121094 58.18530273 C-118.03198242 57.61924316 -117.57275391 57.05318359 -117.09960938 56.4699707 C-92.89705962 26.81982363 -57.75556758 5.72914751 -19.47558594 0.57202148 C-13.00651 -0.06338428 -6.49416515 -0.00070497 0 0 Z " fill="#010000" transform="translate(157.4912109375,6.814697265625)"/>
<path d="M0 0 C2.77309092 0.01070973 5.54553231 0.00005557 8.31860352 -0.01269531 C26.11155896 -0.02690432 42.99347022 2.26309808 59.84399414 8.26074219 C59.84399414 8.92074219 59.84399414 9.58074219 59.84399414 10.26074219 C58.22223796 11.39060541 56.54352571 12.43914532 54.84399414 13.44824219 C44.20186429 20.06879598 36.81773024 26.75009034 33.84399414 39.26074219 C33.13363709 48.144818 32.72107799 59.12748097 36.84399414 67.26074219 C39.222558 68.55383518 39.222558 68.55383518 41.84399414 69.26074219 C43.85151229 70.24556241 45.85333873 71.24226733 47.84399414 72.26074219 C47.84399414 71.60074219 47.84399414 70.94074219 47.84399414 70.26074219 C46.35899414 69.76574219 46.35899414 69.76574219 44.84399414 69.26074219 C46.21899414 67.76074219 46.21899414 67.76074219 47.84399414 66.26074219 C48.50399414 66.26074219 49.16399414 66.26074219 49.84399414 66.26074219 C49.84399414 65.60074219 49.84399414 64.94074219 49.84399414 64.26074219 C47.86399414 63.76574219 47.86399414 63.76574219 45.84399414 63.26074219 C47.49399414 61.61074219 49.14399414 59.96074219 50.84399414 58.26074219 C49.52399414 58.59074219 48.20399414 58.92074219 46.84399414 59.26074219 C47.50399414 57.94074219 48.16399414 56.62074219 48.84399414 55.26074219 C49.50399414 55.26074219 50.16399414 55.26074219 50.84399414 55.26074219 C50.84399414 54.60074219 50.84399414 53.94074219 50.84399414 53.26074219 C49.85399414 53.26074219 48.86399414 53.26074219 47.84399414 53.26074219 C48.17399414 52.27074219 48.50399414 51.28074219 48.84399414 50.26074219 C49.50399414 49.93074219 50.16399414 49.60074219 50.84399414 49.26074219 C51.17399414 48.27074219 51.50399414 47.28074219 51.84399414 46.26074219 C49.86399414 47.25074219 49.86399414 47.25074219 47.84399414 48.26074219 C49.13699108 45.37636439 50.50340777 43.38854798 52.84399414 41.26074219 C52.18399414 40.93074219 51.52399414 40.60074219 50.84399414 40.26074219 C50.84399414 39.60074219 50.84399414 38.94074219 50.84399414 38.26074219 C53.34399414 36.63574219 53.34399414 36.63574219 55.84399414 35.26074219 C55.18399414 34.60074219 54.52399414 33.94074219 53.84399414 33.26074219 C56.15399414 32.60074219 58.46399414 31.94074219 60.84399414 31.26074219 C59.85399414 30.27074219 59.85399414 30.27074219 58.84399414 29.26074219 C61.81399414 28.93074219 64.78399414 28.60074219 67.84399414 28.26074219 C66.85399414 27.27074219 66.85399414 27.27074219 65.84399414 26.26074219 C73.27256557 25.9750279 73.27256557 25.9750279 76.84399414 28.26074219 C76.84399414 27.27074219 76.84399414 26.28074219 76.84399414 25.26074219 C80.19995242 25.86002045 82.2220064 27.10696654 84.84399414 29.26074219 C81.92319104 24.18108462 78.33736961 20.94365643 73.76977539 17.28808594 C71.54049927 14.94124151 71.16859005 13.43518011 70.84399414 10.26074219 C76.24281838 14.85548622 81.55732501 19.53750492 86.84399414 24.26074219 C85.36013266 20.82688473 83.37009858 18.56360885 80.78149414 15.88574219 C77.62462775 12.4320276 75.84399414 10.13185567 75.84399414 5.26074219 C76.53235352 5.96585937 77.22071289 6.67097656 77.92993164 7.39746094 C79.91068679 9.38170579 81.95131368 11.25748133 84.07055664 13.09277344 C84.62743164 13.58197266 85.18430664 14.07117188 85.75805664 14.57519531 C86.89734433 15.57272232 88.04585909 16.55980958 89.20336914 17.53613281 C92.91824498 20.84064446 94.74903571 23.63723195 96.11889648 28.43530273 C96.99518299 30.6413614 97.98613419 31.79426757 99.84399414 33.26074219 C102.51878741 32.99978675 104.44494555 32.46026648 106.84399414 31.26074219 C106.26836586 34.59938623 105.25335798 35.95176851 102.84399414 38.26074219 C102.51399414 39.25074219 102.18399414 40.24074219 101.84399414 41.26074219 C103.49399414 41.26074219 105.14399414 41.26074219 106.84399414 41.26074219 C106.18399414 42.25074219 105.52399414 43.24074219 104.84399414 44.26074219 C104.60248641 46.7765911 104.60248641 46.7765911 104.71899414 49.44824219 C104.73704102 50.34929687 104.75508789 51.25035156 104.77368164 52.17871094 C104.79688477 52.86578125 104.82008789 53.55285156 104.84399414 54.26074219 C106.49399414 54.59074219 108.14399414 54.92074219 109.84399414 55.26074219 C110.25330134 59.35381417 110.24709068 62.34603628 107.90649414 65.76074219 C104.84399414 68.26074219 104.84399414 68.26074219 102.50805664 68.40917969 C100.23599018 68.15832061 98.06582461 67.79320701 95.84399414 67.26074219 C94.84399414 64.26074219 94.84399414 64.26074219 94.59399414 62.19824219 C93.98366733 59.96940891 93.98366733 59.96940891 91.28149414 59.01074219 C90.47711914 58.76324219 89.67274414 58.51574219 88.84399414 58.26074219 C89.50399414 57.93074219 90.16399414 57.60074219 90.84399414 57.26074219 C89.91010235 54.84908963 89.91010235 54.84908963 86.40649414 53.82324219 C82.84399414 52.26074219 82.84399414 52.26074219 80.84399414 49.26074219 C77.76033543 49.01052649 77.76033543 49.01052649 74.84399414 49.26074219 C74.37104249 54.77851145 76.65519609 57.55679832 79.71899414 61.94824219 C82.01946081 65.53426375 83.75930947 69.2070534 85.50024414 73.08886719 C87.02106048 75.5469308 88.180767 76.24510472 90.84399414 77.26074219 C90.06495086 89.93044606 90.06495086 89.93044606 87.84399414 95.26074219 C89.5907101 97.61501152 90.98659722 99.07201725 93.90258789 99.71386719 C95.46888765 99.87234608 97.03850917 100.00046618 98.60961914 100.10058594 C100.84399414 100.26074219 100.84399414 100.26074219 103.96899414 101.01074219 C107.26859942 101.29766439 108.80471892 100.33110623 111.70727539 98.90917969 C116.21608783 97.54087463 121.31346956 98.17451626 125.84399414 99.26074219 C126.83399414 100.74574219 126.83399414 100.74574219 127.84399414 102.26074219 C126.85399414 102.26074219 125.86399414 102.26074219 124.84399414 102.26074219 C124.51399414 102.92074219 124.18399414 103.58074219 123.84399414 104.26074219 C122.52399414 104.26074219 121.20399414 104.26074219 119.84399414 104.26074219 C119.51399414 105.58074219 119.18399414 106.90074219 118.84399414 108.26074219 C118.18399414 107.60074219 117.52399414 106.94074219 116.84399414 106.26074219 C114.38657877 105.76059265 114.38657877 105.76059265 111.84399414 106.26074219 C109.25630014 108.5807437 108.87215817 109.9086918 108.59399414 113.38574219 C108.6611806 116.20182215 108.6611806 116.20182215 109.84399414 118.26074219 C105.96899414 117.38574219 105.96899414 117.38574219 104.84399414 116.26074219 C104.80306477 113.92776786 104.80157691 111.59368994 104.84399414 109.26074219 C100.69941912 109.00325635 96.55363982 108.78494495 92.40649414 108.57324219 C91.24182617 108.50041016 90.0771582 108.42757812 88.87719727 108.35253906 C82.60946854 108.05239431 77.5217332 108.14927528 71.68383789 110.57519531 C69.05170016 111.55596001 66.61424048 111.47383806 63.84399414 111.26074219 C64.77554434 112.88232957 65.71185241 114.50131846 66.66821289 116.10839844 C67.84399414 118.26074219 67.84399414 118.26074219 68.80102539 120.69433594 C69.92526643 123.32598631 70.84255513 125.20148382 72.84399414 127.26074219 C76.03306742 127.98238885 78.83783481 128.07765778 82.10180664 127.96777344 C84.84399414 128.26074219 84.84399414 128.26074219 86.77368164 130.08496094 C87.84399414 132.26074219 87.84399414 132.26074219 86.84399414 135.26074219 C85.85399414 134.60074219 84.86399414 133.94074219 83.84399414 133.26074219 C83.51399414 133.92074219 83.18399414 134.58074219 82.84399414 135.26074219 C69.31399414 134.60074219 55.78399414 133.94074219 41.84399414 133.26074219 C41.84399414 133.92074219 41.84399414 134.58074219 41.84399414 135.26074219 C41.18399414 135.26074219 40.52399414 135.26074219 39.84399414 135.26074219 C39.84399414 134.60074219 39.84399414 133.94074219 39.84399414 133.26074219 C38.85399414 133.59074219 37.86399414 133.92074219 36.84399414 134.26074219 C34.35305478 134.36265788 31.89731206 134.40127167 29.40649414 134.38574219 C28.26688232 134.3828418 28.26688232 134.3828418 27.10424805 134.37988281 C15.01228597 134.29481136 2.92511713 133.74615598 -9.15600586 133.26074219 C-7.81575502 137.89714782 -7.81575502 137.89714782 -4.71850586 141.51074219 C5.21673829 146.391213 16.90812351 145.63266466 27.72485352 145.82714844 C36.62000471 146.04916523 43.76284083 147.20594412 52.03149414 150.63574219 C53.01504883 151.03535156 53.99860352 151.43496094 55.01196289 151.84667969 C61.01067055 154.84189648 64.19050678 158.83270382 67.84399414 164.26074219 C68.51301758 163.52017578 68.51301758 163.52017578 69.19555664 162.76464844 C70.84399414 161.26074219 70.84399414 161.26074219 73.21899414 161.19824219 C77.03761814 162.74387571 78.45568367 164.91710753 80.84399414 168.26074219 C80.84399414 168.92074219 80.84399414 169.58074219 80.84399414 170.26074219 C81.40086914 169.74511719 81.95774414 169.22949219 82.53149414 168.69824219 C84.84399414 167.26074219 84.84399414 167.26074219 87.34399414 167.63574219 C88.16899414 167.84199219 88.99399414 168.04824219 89.84399414 168.26074219 C90.52461914 168.07511719 91.20524414 167.88949219 91.90649414 167.69824219 C94.48979531 167.11491612 95.63608618 167.92022664 97.84399414 169.26074219 C98.83399414 168.60074219 99.82399414 167.94074219 100.84399414 167.26074219 C107.29682433 167.71357238 107.29682433 167.71357238 109.84399414 170.26074219 C110.03930664 172.64355469 110.03930664 172.64355469 109.96899414 175.38574219 C109.95094727 176.29582031 109.93290039 177.20589844 109.91430664 178.14355469 C109.89110352 178.84222656 109.86790039 179.54089844 109.84399414 180.26074219 C110.83399414 180.26074219 111.82399414 180.26074219 112.84399414 180.26074219 C112.74086914 179.20886719 112.63774414 178.15699219 112.53149414 177.07324219 C112.84399414 173.26074219 112.84399414 173.26074219 114.96899414 170.38574219 C118.16539914 168.02318197 119.89226748 167.34306983 123.84399414 167.26074219 C126.71899414 168.19824219 126.71899414 168.19824219 128.84399414 169.26074219 C128.84399414 169.92074219 128.84399414 170.58074219 128.84399414 171.26074219 C128.18399414 171.26074219 127.52399414 171.26074219 126.84399414 171.26074219 C126.93100586 172.67226563 126.93100586 172.67226563 127.01977539 174.11230469 C127.43431908 185.55371061 127.43431908 185.55371061 124.59399414 189.01074219 C120.25510525 192.56074219 120.25510525 192.56074219 117.84399414 193.26074219 C115.59399414 192.88574219 115.59399414 192.88574219 113.84399414 192.26074219 C114.45677026 189.29899096 115.09771936 187.88015436 116.84399414 185.26074219 C116.18399414 185.26074219 115.52399414 185.26074219 114.84399414 185.26074219 C113.21899414 183.76074219 113.21899414 183.76074219 111.84399414 182.26074219 C111.22524414 182.75574219 110.60649414 183.25074219 109.96899414 183.76074219 C107.84399414 185.26074219 107.84399414 185.26074219 105.84399414 185.26074219 C105.18399414 184.60074219 104.52399414 183.94074219 103.84399414 183.26074219 C102.85399414 184.25074219 101.86399414 185.24074219 100.84399414 186.26074219 C101.50399414 187.25074219 102.16399414 188.24074219 102.84399414 189.26074219 C103.9408011 193.97701211 103.87371152 198.4514802 103.84399414 203.26074219 C81.4866821 204.1919387 81.4866821 204.1919387 74.34399414 200.76074219 C68.26540349 197.89593244 62.76357856 197.79815199 56.15649414 197.82324219 C55.19356445 197.82582031 54.23063477 197.82839844 53.23852539 197.83105469 C41.98856955 197.95390521 41.98856955 197.95390521 31.99243164 202.37011719 C27.04633653 205.34022889 22.11394356 204.68361461 16.46899414 204.51074219 C15.35137695 204.49269531 14.23375977 204.47464844 13.08227539 204.45605469 C10.33529384 204.40909774 7.59009367 204.34343687 4.84399414 204.26074219 C4.77267368 202.6754656 4.72200081 201.08925206 4.67993164 199.50292969 C4.63425049 198.17817627 4.63425049 198.17817627 4.58764648 196.82666016 C5.02583958 192.44055598 7.59487463 190.01956663 10.84399414 187.26074219 C12.79831551 185.77739466 14.72995674 184.51909778 16.84399414 183.26074219 C16.51399414 182.93074219 16.18399414 182.60074219 15.84399414 182.26074219 C15.25516165 175.19475234 15.25516165 175.19475234 17.65649414 171.38574219 C21.90281767 167.26074219 21.90281767 167.26074219 25.84399414 167.26074219 C25.84399414 166.27074219 25.84399414 165.28074219 25.84399414 164.26074219 C24.85399414 164.26074219 23.86399414 164.26074219 22.84399414 164.26074219 C22.84399414 162.26074219 22.84399414 162.26074219 24.84399414 160.13574219 C25.50399414 159.51699219 26.16399414 158.89824219 26.84399414 158.26074219 C21.54795176 155.02091202 17.17409129 154.80420962 11.15649414 154.69824219 C-10.53044239 153.92062295 -10.53044239 153.92062295 -18.15600586 147.26074219 C-23.319333 141.48863849 -25.68245785 136.75789452 -25.54663086 128.93652344 C-24.10663633 119.07256091 -13.60125337 110.39563602 -6.0559082 104.66601562 C-3.7604932 103.01093969 -1.43938836 101.40590949 0.90649414 99.82324219 C1.63771484 99.32719482 2.36893555 98.83114746 3.12231445 98.32006836 C8.43754413 94.85523406 13.88607483 92.42168177 19.84399414 90.26074219 C19.18399414 89.27074219 18.52399414 88.28074219 17.84399414 87.26074219 C14.37899414 87.75574219 14.37899414 87.75574219 10.84399414 88.26074219 C7.84399414 83.51074219 7.84399414 83.51074219 7.84399414 81.26074219 C6.42776198 81.20627172 5.01091223 81.16773711 3.59399414 81.13574219 C2.41063477 81.1009375 2.41063477 81.1009375 1.20336914 81.06542969 C-1.36332527 81.27790439 -2.94761255 81.97420113 -5.15600586 83.26074219 C-5.62651367 82.69484375 -6.09702148 82.12894531 -6.58178711 81.54589844 C-7.2044043 80.81242187 -7.82702148 80.07894531 -8.46850586 79.32324219 C-9.39083008 78.22689453 -9.39083008 78.22689453 -10.33178711 77.10839844 C-13.23953969 74.16328715 -16.01912904 74.10357534 -19.96850586 74.07324219 C-20.79995117 74.0590625 -21.63139648 74.04488281 -22.48803711 74.03027344 C-25.60423355 74.29946171 -28.23092078 75.1803823 -31.15600586 76.26074219 C-31.10959961 75.17535156 -31.06319336 74.08996094 -31.01538086 72.97167969 C-30.97784099 71.52639487 -30.94144322 70.08108008 -30.90600586 68.63574219 C-30.87249023 67.92289062 -30.83897461 67.21003906 -30.80444336 66.47558594 C-30.70910636 61.27971934 -31.65605152 58.33889637 -35.15600586 54.26074219 C-36.97621848 52.98630062 -36.97621848 52.98630062 -38.96850586 52.44824219 C-39.99911133 52.11953125 -39.99911133 52.11953125 -41.05053711 51.78417969 C-44.0834212 51.03017882 -47.04741237 50.58455401 -50.15600586 50.26074219 C-49.82600586 49.20886719 -49.49600586 48.15699219 -49.15600586 47.07324219 C-47.4083408 39.89123176 -46.36759104 31.46891263 -50.15600586 24.82324219 C-52.68651484 21.39621003 -55.78140394 18.96645439 -59.28881836 16.58496094 C-61.1211056 15.28549362 -62.61672147 13.89085392 -64.15600586 12.26074219 C-53.33739425 7.89252754 -42.63820099 4.4436965 -31.15600586 2.26074219 C-30.27275635 2.08124023 -29.38950684 1.90173828 -28.47949219 1.71679688 C-18.99229175 -0.00218095 -9.60745395 -0.04407478 0 0 Z " fill="#780000" transform="translate(114.156005859375,62.7392578125)"/>
<path d="M0 0 C2.24010446 -0.00217909 4.47970924 -0.0203693 6.71972656 -0.03930664 C18.77405681 -0.08777781 30.21622528 1.29648135 41.88378906 4.43530273 C42.69122559 4.6521875 43.49866211 4.86907227 44.33056641 5.0925293 C83.33533801 15.91137106 116.29603599 42.29015954 136.46972656 77.20874023 C149.62821482 100.88510565 155.7373585 125.55669881 155.75878906 152.56030273 C155.75946381 153.32196747 155.76013855 154.0836322 155.76083374 154.86837769 C155.74481928 166.23969526 155.28412836 177.11738337 152.50878906 188.18530273 C152.33718262 188.88284668 152.16557617 189.58039063 151.98876953 190.29907227 C146.72363567 211.22315653 137.1597163 231.45538086 123.50878906 248.18530273 C123.04956055 248.7513623 122.59033203 249.31742188 122.1171875 249.90063477 C100.38738205 276.52146332 70.97137259 295.08457878 37.50878906 303.18530273 C35.59259766 303.66483398 35.59259766 303.66483398 33.63769531 304.15405273 C11.5315334 309.02866161 -14.71999784 308.03832506 -36.49121094 302.18530273 C-37.35423828 301.95456055 -38.21726562 301.72381836 -39.10644531 301.48608398 C-58.56482395 296.06584292 -76.71722342 286.80821632 -92.49121094 274.18530273 C-93.0798291 273.71479492 -93.66844727 273.24428711 -94.27490234 272.75952148 C-102.38890532 266.19382706 -109.8365784 259.25901684 -116.49121094 251.18530273 C-117.13388916 250.40823975 -117.13388916 250.40823975 -117.78955078 249.61547852 C-139.99700222 222.32000099 -150.71354661 188.66876313 -150.74121094 153.81030273 C-150.74188568 153.048638 -150.74256042 152.28697327 -150.74325562 151.50222778 C-150.72724115 140.13091021 -150.26655024 129.2532221 -147.49121094 118.18530273 C-147.31960449 117.48775879 -147.14799805 116.79021484 -146.97119141 116.0715332 C-141.70605754 95.14744893 -132.14213818 74.91522461 -118.49121094 58.18530273 C-118.03198242 57.61924316 -117.57275391 57.05318359 -117.09960938 56.4699707 C-92.89705962 26.81982363 -57.75556758 5.72914751 -19.47558594 0.57202148 C-13.00651 -0.06338428 -6.49416515 -0.00070497 0 0 Z M-91.49121094 41.18530273 C-92.69970703 42.21204102 -92.69970703 42.21204102 -93.93261719 43.25952148 C-103.7075983 51.78012317 -112.54752615 61.19864996 -119.49121094 72.18530273 C-119.86600586 72.76844238 -120.24080078 73.35158203 -120.62695312 73.95239258 C-140.61968817 105.32085117 -149.21936834 144.12685753 -141.36621094 180.87280273 C-140.49470328 184.6700638 -139.53124602 188.43087906 -138.49121094 192.18530273 C-138.26127441 193.01626465 -138.03133789 193.84722656 -137.79443359 194.70336914 C-131.29469414 217.38575785 -119.2128765 236.75831535 -103.49121094 254.18530273 C-102.79898438 254.96131836 -102.10675781 255.73733398 -101.39355469 256.53686523 C-80.97072255 278.17955825 -53.37702034 291.48396053 -24.49121094 297.18530273 C-23.44191406 297.41088867 -22.39261719 297.63647461 -21.31152344 297.86889648 C-10.81229672 299.84602359 -0.12603601 299.44513782 10.50878906 299.18530273 C12.45398438 299.14083008 12.45398438 299.14083008 14.43847656 299.09545898 C23.76043004 298.65411939 32.55079232 296.67495874 41.50878906 294.18530273 C42.58386719 293.88994629 42.58386719 293.88994629 43.68066406 293.58862305 C60.88715869 288.72221787 77.67096038 280.5824101 91.50878906 269.18530273 C92.03408203 268.75717285 92.559375 268.32904297 93.10058594 267.88793945 C122.83071323 243.58109139 142.38671866 210.60490281 147.92285156 172.32202148 C151.48045633 131.01427726 142.05083521 91.67946218 114.99267578 59.37524414 C111.64843696 55.49136923 108.13629964 51.8041202 104.50878906 48.18530273 C103.661875 47.32678711 102.81496094 46.46827148 101.94238281 45.58374023 C82.18302268 26.57855416 56.19471277 14.44735534 29.50878906 9.18530273 C28.1505603 8.91496216 28.1505603 8.91496216 26.76489258 8.63916016 C19.32834053 7.27024869 12.12533639 6.83480672 4.57128906 6.87280273 C2.81292725 6.88017456 2.81292725 6.88017456 1.01904297 6.88769531 C-33.25126433 7.34186888 -65.44558366 18.61242576 -91.49121094 41.18530273 Z " fill="#720000" transform="translate(157.4912109375,6.814697265625)"/>
<path d="M0 0 C14.76274414 -0.63647759 26.89780956 0.61845702 39 10 C40.65 9.01 42.3 8.02 44 7 C44.99 7.99 45.98 8.98 47 10 C47.391875 9.484375 47.78375 8.96875 48.1875 8.4375 C50 7 50 7 52.375 6.9375 C56.193624 8.48313352 57.61168953 10.65636534 60 14 C60 14.66 60 15.32 60 16 C60.556875 15.484375 61.11375 14.96875 61.6875 14.4375 C64 13 64 13 66.5 13.375 C67.7375 13.684375 67.7375 13.684375 69 14 C69.680625 13.814375 70.36125 13.62875 71.0625 13.4375 C73.64580117 12.85417393 74.79209204 13.65948445 77 15 C77.99 14.34 78.98 13.68 80 13 C86.45283019 13.45283019 86.45283019 13.45283019 89 16 C89.1953125 18.3828125 89.1953125 18.3828125 89.125 21.125 C89.10695313 22.03507812 89.08890625 22.94515625 89.0703125 23.8828125 C89.04710937 24.58148438 89.02390625 25.28015625 89 26 C89.99 26 90.98 26 92 26 C91.896875 24.948125 91.79375 23.89625 91.6875 22.8125 C92 19 92 19 94.125 16.125 C97.321405 13.76243978 99.04827334 13.08232764 103 13 C105.875 13.9375 105.875 13.9375 108 15 C108 15.66 108 16.32 108 17 C107.34 17 106.68 17 106 17 C106.05800781 17.94101563 106.11601562 18.88203125 106.17578125 19.8515625 C106.59032494 31.29296842 106.59032494 31.29296842 103.75 34.75 C99.41111111 38.3 99.41111111 38.3 97 39 C94.75 38.625 94.75 38.625 93 38 C93.61277612 35.03824877 94.25372522 33.61941217 96 31 C95.34 31 94.68 31 94 31 C92.375 29.5 92.375 29.5 91 28 C90.38125 28.495 89.7625 28.99 89.125 29.5 C87 31 87 31 85 31 C84.01 30.01 84.01 30.01 83 29 C82.01 29.99 81.02 30.98 80 32 C80.66 32.99 81.32 33.98 82 35 C83.09680696 39.71626992 83.02971738 44.19073802 83 49 C60.64268796 49.93119652 60.64268796 49.93119652 53.5 46.5 C47.42140935 43.63519025 41.91958442 43.53740981 35.3125 43.5625 C34.34957031 43.56507813 33.38664062 43.56765625 32.39453125 43.5703125 C21.14457541 43.69316303 21.14457541 43.69316303 11.1484375 48.109375 C6.20234239 51.0794867 1.26994942 50.42287242 -4.375 50.25 C-5.49261719 50.23195313 -6.61023438 50.21390625 -7.76171875 50.1953125 C-10.5087003 50.14835555 -13.25390047 50.08269468 -16 50 C-16.07132047 48.41472341 -16.12199333 46.82850987 -16.1640625 45.2421875 C-16.1945166 44.35901855 -16.2249707 43.47584961 -16.25634766 42.56591797 C-15.81815456 38.17981379 -13.24911951 35.75882445 -10 33 C-8.04567863 31.51665248 -6.1140374 30.25835559 -4 29 C-4.33 28.67 -4.66 28.34 -5 28 C-5.58883249 20.93401015 -5.58883249 20.93401015 -3.1875 17.125 C1.05882353 13 1.05882353 13 5 13 C5 12.01 5 11.02 5 10 C4.01 10 3.02 10 2 10 C2 8 2 8 4 5.875 C4.66 5.25625 5.32 4.6375 6 4 C4.02 3.01 2.04 2.02 0 1 C0 0.67 0 0.34 0 0 Z " fill="#322727" transform="translate(135,217)"/>
<path d="M0 0 C16.17 0 32.34 0 49 0 C49 0.66 49 1.32 49 2 C49.66 2 50.32 2 51 2 C51 1.34 51 0.68 51 0 C63.89544946 -0.15768892 76.73222645 0.29242969 89.61254883 0.90820312 C91.74034681 0.9900164 93.87062975 1 96 1 C96 1.66 96 2.32 96 3 C99.3 3 102.6 3 106 3 C106 3.66 106 4.32 106 5 C127.45 5 148.9 5 171 5 C169.82682012 9.69271951 168.87083372 10.33101955 165 13 C145.73197316 23.4008307 125.02261494 30.34147002 103.12255859 30.67333984 C101.63296631 30.69968506 101.63296631 30.69968506 100.11328125 30.7265625 C99.22423096 30.73252441 98.33518066 30.73848633 97.41918945 30.74462891 C94.8417702 31.01670283 93.25972192 31.78442545 91 33 C88.29364631 32.74627934 87.12257298 32.09959055 85 30.375 C83.11841641 28.76783002 83.11841641 28.76783002 80.9375 29.1875 C78.73718185 30.03815934 78.73718185 30.03815934 76 32 C75.54560547 31.20335937 75.54560547 31.20335937 75.08203125 30.390625 C74.45361328 29.33101562 74.45361328 29.33101562 73.8125 28.25 C73.40644531 27.55390625 73.00039062 26.8578125 72.58203125 26.140625 C69.12499336 21.46295398 64.92337411 19.31414558 59.5625 17.3125 C57.92474609 16.68794922 57.92474609 16.68794922 56.25390625 16.05078125 C51.07093318 14.37704805 46.10365676 13.87510609 40.67578125 13.75390625 C39.48146484 13.72103516 38.28714844 13.68816406 37.05664062 13.65429688 C34.58015974 13.59357982 32.10359369 13.53623336 29.62695312 13.48242188 C7.86327262 12.86327262 7.86327262 12.86327262 0 5 C0 3.35 0 1.7 0 0 Z " fill="#322626" transform="translate(105,196)"/>
<path d="M0 0 C14.76274414 -0.63647759 26.89780956 0.61845702 39 10 C40.65 9.01 42.3 8.02 44 7 C44.99 7.99 45.98 8.98 47 10 C47.391875 9.484375 47.78375 8.96875 48.1875 8.4375 C50 7 50 7 52.4375 7.0625 C55.70434917 8.25768872 57.03708899 9.09198369 59 12 C59.87912876 16.67092654 59.47103563 20.0753745 57.3125 24.3125 C54.96539835 27.04021273 53.08495202 29.13468018 50 31 C48.845 30.979375 47.69 30.95875 46.5 30.9375 C41.84177959 31.02068251 41.18082306 32.74344306 38 36 C30.86373893 40.06690147 22.83870084 39.41385156 15 38 C9.94658531 36.08253611 6.38171858 31.76343716 4 27 C2.35 28.32 0.7 29.64 -1 31 C-3 30 -3 30 -5 28 C-5.60881005 23.28172209 -5.73036814 21.15851498 -3.1875 17.125 C1.05882353 13 1.05882353 13 5 13 C5 12.01 5 11.02 5 10 C4.01 10 3.02 10 2 10 C2 8 2 8 4 5.875 C4.66 5.25625 5.32 4.6375 6 4 C4.02 3.01 2.04 2.02 0 1 C0 0.67 0 0.34 0 0 Z " fill="#362929" transform="translate(135,217)"/>
<path d="M0 0 C2.5 0.3125 2.5 0.3125 5 1 C5.680625 0.814375 6.36125 0.62875 7.0625 0.4375 C9.64580117 -0.14582607 10.79209204 0.65948445 13 2 C13.99 1.34 14.98 0.68 16 0 C22.45283019 0.45283019 22.45283019 0.45283019 25 3 C25.1953125 5.3828125 25.1953125 5.3828125 25.125 8.125 C25.10695312 9.03507813 25.08890625 9.94515625 25.0703125 10.8828125 C25.04710937 11.58148438 25.02390625 12.28015625 25 13 C25.99 13 26.98 13 28 13 C27.896875 11.948125 27.79375 10.89625 27.6875 9.8125 C28 6 28 6 30.125 3.125 C33.321405 0.76243978 35.04827334 0.08232764 39 0 C41.875 0.9375 41.875 0.9375 44 2 C44 2.66 44 3.32 44 4 C43.34 4 42.68 4 42 4 C42.05800781 4.94101563 42.11601562 5.88203125 42.17578125 6.8515625 C42.59032494 18.29296842 42.59032494 18.29296842 39.75 21.75 C35.41111111 25.3 35.41111111 25.3 33 26 C30.75 25.625 30.75 25.625 29 25 C29.61277612 22.03824877 30.25372522 20.61941217 32 18 C31.34 18 30.68 18 30 18 C28.375 16.5 28.375 16.5 27 15 C26.38125 15.495 25.7625 15.99 25.125 16.5 C23 18 23 18 21 18 C20.34 17.34 19.68 16.68 19 16 C17.35 16.66 15.7 17.32 14 18 C12.4375 16.8125 12.4375 16.8125 11 15 C10.9375 12.625 10.9375 12.625 12 10 C13.88123038 8.09278577 15.83849525 6.6096312 18 5 C16.7625 5.165 15.525 5.33 14.25 5.5 C6.94736842 6.47368421 6.94736842 6.47368421 4 5 C4 7.64 4 10.28 4 13 C4.66 13 5.32 13 6 13 C6 13.66 6 14.32 6 15 C2.53846154 18 2.53846154 18 0 18 C-1.53426769 14.93146462 -1.38939873 11.70412079 -1.62109375 8.3125 C-1.80005898 5.81096367 -1.80005898 5.81096367 -4 4 C-2.3125 1.9375 -2.3125 1.9375 0 0 Z " fill="#F8F8F8" transform="translate(199,230)"/>
<path d="M0 0 C2.37674262 0.89788055 4.61254031 1.79329248 6.8125 3.0625 C7.8025 2.0725 8.7925 1.0825 9.8125 0.0625 C11.1325 0.7225 12.4525 1.3825 13.8125 2.0625 C14.4725 1.4025 15.1325 0.7425 15.8125 0.0625 C17.6875 0.4375 17.6875 0.4375 19.8125 1.0625 C21.1325 1.0625 22.4525 1.0625 23.8125 1.0625 C25.1325 1.0625 26.4525 1.0625 27.8125 1.0625 C30.08554513 3.33554513 29.29883947 8.69101333 29.34472656 11.82836914 C29.21925672 17.54300816 27.90902923 20.71865214 23.734375 24.77734375 C21.73916654 26.11153802 20.16268146 26.6517382 17.8125 27.0625 C18.16183594 26.63582031 18.51117188 26.20914062 18.87109375 25.76953125 C23.40611765 19.53869104 23.68579748 13.61857758 23.8125 6.0625 C22.719375 6.26875 21.62625 6.475 20.5 6.6875 C16.8125 7.0625 16.8125 7.0625 13.8125 5.0625 C13.8125 7.7025 13.8125 10.3425 13.8125 13.0625 C14.4725 13.3925 15.1325 13.7225 15.8125 14.0625 C14.52284824 15.43812854 13.18560707 16.77016393 11.8125 18.0625 C11.1525 18.0625 10.4925 18.0625 9.8125 18.0625 C8.55012269 15.53774538 8.71393596 13.75049534 8.75 10.9375 C8.75902344 10.02742187 8.76804687 9.11734375 8.77734375 8.1796875 C8.78894531 7.48101562 8.80054687 6.78234375 8.8125 6.0625 C7.8225 6.0625 6.8325 6.0625 5.8125 6.0625 C5.72613281 6.80757812 5.63976562 7.55265625 5.55078125 8.3203125 C4.66791468 11.59953119 3.54563125 12.73663885 1 14.9375 C-0.03060547 15.86175781 -0.03060547 15.86175781 -1.08203125 16.8046875 C-3.1875 18.0625 -3.1875 18.0625 -5.33984375 17.8984375 C-8.1752581 16.61560733 -8.92314214 14.84408729 -10.1875 12.0625 C-10.8125 9.6875 -10.8125 9.6875 -10.1875 7.0625 C-7.3885398 3.13752133 -4.98938288 0.09783104 0 0 Z " fill="#E9E9E9" transform="translate(72.1875,229.9375)"/>
<path d="M0 0 C3.81163745 3.81163745 5.11072111 8.81253982 6 14 C3.36 14.33 0.72 14.66 -2 15 C-1.01 15.33 -0.02 15.66 1 16 C1.99 16.66 2.98 17.32 4 18 C4 18.66 4 19.32 4 20 C-1.94 20 -7.88 20 -14 20 C-14.33 19.01 -14.66 18.02 -15 17 C-13.68 17.33 -12.36 17.66 -11 18 C-11 17.34 -11 16.68 -11 16 C-16.16680894 14.9891026 -20.55017631 15.13107999 -25.765625 15.84375 C-28 16 -28 16 -31 15 C-31 14.34 -31 13.68 -31 13 C-30.04738281 12.62488281 -29.09476563 12.24976563 -28.11328125 11.86328125 C-26.84608439 11.34701586 -25.57917218 10.83005137 -24.3125 10.3125 C-23.68666016 10.06822266 -23.06082031 9.82394531 -22.41601562 9.57226562 C-17.97615626 7.735884 -15.28163927 5.44600462 -12 2 C-8.05681397 0.52130524 -4.21312721 -0.70218787 0 0 Z " fill="#050000" transform="translate(169,176)"/>
<path d="M0 0 C3.3125 1 3.3125 1 5.3125 4 C5.5078125 6.26171875 5.5078125 6.26171875 5.4375 8.6875 C5.41945313 9.49574219 5.40140625 10.30398437 5.3828125 11.13671875 C5.34800781 12.05904297 5.34800781 12.05904297 5.3125 13 C5.9725 13 6.6325 13 7.3125 13 C7.209375 12.113125 7.10625 11.22625 7 10.3125 C7.41093543 5.95658446 9.06110528 4.78690976 12.3125 2 C12.9725 1.34 13.6325 0.68 14.3125 0 C19.76704545 0.45454545 19.76704545 0.45454545 22.3125 3 C22.86231704 6.24392053 23.14143258 7.9163708 22.3125 11 C20.04562516 13.9114838 17.56995297 16.24644411 14.3125 18 C12.109375 17.87109375 12.109375 17.87109375 10.3125 17 C9.9825 16.01 9.6525 15.02 9.3125 14 C8.57 14.495 7.8275 14.99 7.0625 15.5 C4.3125 17 4.3125 17 0.3125 17 C0.3125 16.34 0.3125 15.68 0.3125 15 C-0.265 15.515625 -0.8425 16.03125 -1.4375 16.5625 C-3.6875 18 -3.6875 18 -5.875 17.75 C-7.6875 17 -7.6875 17 -8.6875 16 C-8.52210061 11.61691616 -8.36278435 9.64234365 -5.125 6.5625 C-4.320625 6.046875 -3.51625 5.53125 -2.6875 5 C-4.6675 5 -6.6475 5 -8.6875 5 C-4.66310976 0 -4.66310976 0 0 0 Z " fill="#E9E9E9" transform="translate(252.6875,230)"/>
<path d="M0 0 C1.32 0.99 2.64 1.98 4 3 C4.391875 2.484375 4.78375 1.96875 5.1875 1.4375 C7 0 7 0 9.4375 0.0625 C12.70434917 1.25768872 14.03708899 2.09198369 16 5 C16.87912876 9.67092654 16.47103563 13.0753745 14.3125 17.3125 C8.69722557 23.83835947 8.69722557 23.83835947 4.45703125 24.2421875 C1.97005346 24.24920295 -0.51654183 24.1324511 -3 24 C-2.505 15.09 -2.505 15.09 -2 6 C-2.99 6 -3.98 6 -5 6 C-3.63016497 2.83884224 -3.0109362 2.0072908 0 0 Z " fill="#F4F2F2" transform="translate(178,224)"/>
<path d="M0 0 C0.763125 0.185625 1.52625 0.37125 2.3125 0.5625 C3.1478125 0.7790625 3.1478125 0.7790625 4 1 C4 1.66 4 2.32 4 3 C3.34 3 2.68 3 2 3 C2.08701172 4.41152344 2.08701172 4.41152344 2.17578125 5.8515625 C2.59032494 17.29296842 2.59032494 17.29296842 -0.25 20.75 C-4.58888889 24.3 -4.58888889 24.3 -7 25 C-9.25 24.625 -9.25 24.625 -11 24 C-10.38722388 21.03824877 -9.74627478 19.61941217 -8 17 C-8.66 17 -9.32 17 -10 17 C-12.09275367 14.68302272 -13.01886684 12.96392376 -12.95703125 9.8046875 C-12.23071692 5.44680155 -11.48589725 3.4535041 -8.1875 0.375 C-4.68338217 -1.13658024 -3.53336931 -1.20878424 0 0 Z " fill="#F0F0F0" transform="translate(239,231)"/>
<path d="M0 0 C1.32 0.66 2.64 1.32 4 2 C4 8.27 4 14.54 4 21 C4.66 21 5.32 21 6 21 C6 21.66 6 22.32 6 23 C2.53846154 26 2.53846154 26 0 26 C-0.66 24.68 -1.32 23.36 -2 22 C-3.65 23.32 -5.3 24.64 -7 26 C-9 25 -9 25 -11 23 C-11.60881005 18.28172209 -11.73036814 16.15851498 -9.1875 12.125 C-4.94117647 8 -4.94117647 8 -1 8 C-1 7.01 -1 6.02 -1 5 C-1.99 5 -2.98 5 -4 5 C-4 4.34 -4 3.68 -4 3 C-2 1.375 -2 1.375 0 0 Z " fill="#F5F4F4" transform="translate(141,222)"/>
<path d="M0 0 C3.3125 1 3.3125 1 5.3125 4 C5.5078125 6.26171875 5.5078125 6.26171875 5.4375 8.6875 C5.41945313 9.49574219 5.40140625 10.30398437 5.3828125 11.13671875 C5.34800781 12.05904297 5.34800781 12.05904297 5.3125 13 C5.9725 13.33 6.6325 13.66 7.3125 14 C5.9925 15.32 4.6725 16.64 3.3125 18 C2.3225 17.67 1.3325 17.34 0.3125 17 C0.3125 16.34 0.3125 15.68 0.3125 15 C-0.265 15.515625 -0.8425 16.03125 -1.4375 16.5625 C-3.6875 18 -3.6875 18 -5.875 17.75 C-7.6875 17 -7.6875 17 -8.6875 16 C-8.52210061 11.61691616 -8.36278435 9.64234365 -5.125 6.5625 C-4.320625 6.046875 -3.51625 5.53125 -2.6875 5 C-4.6675 5 -6.6475 5 -8.6875 5 C-4.66310976 0 -4.66310976 0 0 0 Z " fill="#F0F0F0" transform="translate(252.6875,230)"/>
<path d="M0 0 C2.45128354 1.15755056 3.75915816 1.78700456 5.25 4.0625 C5.75 6.9375 5.75 6.9375 5.25 10.0625 C2.9375 12.75 2.9375 12.75 0.25 15.0625 C-0.265625 15.68125 -0.78125 16.3 -1.3125 16.9375 C-2.75 18.0625 -2.75 18.0625 -4.75 18 C-7.44196234 16.73814266 -8.3595378 15.70437818 -9.75 13.0625 C-10.375 9.6875 -10.375 9.6875 -9.75 6.0625 C-7.10748401 2.6131654 -4.4452374 0.10102812 0 0 Z " fill="#F2F1F1" transform="translate(157.75,229.9375)"/>
<path d="M0 0 C3.3125 0.9375 3.3125 0.9375 5.3125 2.9375 C5.5078125 5.3203125 5.5078125 5.3203125 5.4375 8.0625 C5.41945313 8.97257813 5.40140625 9.88265625 5.3828125 10.8203125 C5.35960938 11.51898438 5.33640625 12.21765625 5.3125 12.9375 C6.3025 13.2675 7.2925 13.5975 8.3125 13.9375 C3.5625 17.9375 3.5625 17.9375 1.3125 17.9375 C0.6525 17.2775 -0.0075 16.6175 -0.6875 15.9375 C-1.6775 16.5975 -2.6675 17.2575 -3.6875 17.9375 C-5.875 17.5625 -5.875 17.5625 -7.6875 16.9375 C-8.625 14.3125 -8.625 14.3125 -8.6875 10.9375 C-6.6331142 8.54967986 -4.25707396 6.74453206 -1.6875 4.9375 C-3.9975 4.9375 -6.3075 4.9375 -8.6875 4.9375 C-4.64997961 -0.07881321 -4.64997961 -0.07881321 0 0 Z " fill="#F5F5F5" transform="translate(111.6875,230.0625)"/>
<path d="M0 0 C2.5625 0.25 2.5625 0.25 5 1 C5.66 0.835 6.32 0.67 7 0.5 C9.57433043 -0.14358261 11.4556383 0.36390958 14 1 C12.9375 3 12.9375 3 11 5 C7.3125 5.25 7.3125 5.25 4 5 C4 6.65 4 8.3 4 10 C6.64 10 9.28 10 12 10 C11.34 11.32 10.68 12.64 10 14 C8.02 14 6.04 14 4 14 C4 15.65 4 17.3 4 19 C4.66 19 5.32 19 6 19 C6 19.66 6 20.32 6 21 C2.53846154 24 2.53846154 24 0 24 C-1.59412284 20.81175432 -1.10174735 17.37103338 -1.0625 13.875 C-1.05798828 13.12089844 -1.05347656 12.36679688 -1.04882812 11.58984375 C-1.03703499 9.72652873 -1.01909942 7.86325445 -1 6 C-2.32 5.67 -3.64 5.34 -5 5 C-2.8125 2.4375 -2.8125 2.4375 0 0 Z " fill="#EEEEEE" transform="translate(48,224)"/>
<path d="M0 0 C0.33 1.98 0.66 3.96 1 6 C-0.32 6.33 -1.64 6.66 -3 7 C-2.67 7.66 -2.34 8.32 -2 9 C0.52733235 9.65555119 0.52733235 9.65555119 3 10 C3 10.33 3 10.66 3 11 C-5.25 11 -13.5 11 -22 11 C-21 7 -21 7 -18.92578125 5.5859375 C-6.09698602 -0.35864624 -6.09698602 -0.35864624 0 0 Z " fill="#070000" transform="translate(128,185)"/>
<path d="M0 0 C6.40659341 0.6043956 6.40659341 0.6043956 8.875 2.25 C10.42023745 4.6537027 10.93293776 6.11632369 11 9 C9.5625 12.3125 9.5625 12.3125 7 15 C3.95033801 15.81446796 2.24455552 15.51500881 -1 15 C-3.54501505 12.70127673 -4.54695711 10.37265264 -5 7 C-4.00390625 5.078125 -4.00390625 5.078125 -2.5625 3.25 C-2.08941406 2.63640625 -1.61632812 2.0228125 -1.12890625 1.390625 C-0.75636719 0.93171875 -0.38382813 0.4728125 0 0 Z " fill="#F9C300" transform="translate(238,173)"/>
<path d="M0 0 C2.5 0.3125 2.5 0.3125 5 1 C5.680625 0.814375 6.36125 0.62875 7.0625 0.4375 C9.67142479 -0.15161205 10.75594857 0.65356914 13 2 C13.66 2.33 14.32 2.66 15 3 C12.3125 5.125 12.3125 5.125 9 7 C6.125 6.25 6.125 6.25 4 5 C4 7.64 4 10.28 4 13 C4.66 13 5.32 13 6 13 C6 13.66 6 14.32 6 15 C2.53846154 18 2.53846154 18 0 18 C-1.53426769 14.93146462 -1.38939873 11.70412079 -1.62109375 8.3125 C-1.80005898 5.81096367 -1.80005898 5.81096367 -4 4 C-2.3125 1.9375 -2.3125 1.9375 0 0 Z " fill="#F2F2F2" transform="translate(199,230)"/>
<path d="M0 0 C0 0.66 0 1.32 0 2 C-0.66 2 -1.32 2 -2 2 C-1.91298828 3.42892578 -1.91298828 3.42892578 -1.82421875 4.88671875 C-1.46009946 15.00923514 -1.46009946 15.00923514 -3.11328125 18.04296875 C-4.5 19.375 -4.5 19.375 -7 21 C-7.6416966 15.30494264 -8.12462322 9.73266804 -8 4 C-9.32 3.34 -10.64 2.68 -12 2 C-11.67 1.01 -11.34 0.02 -11 -1 C-7.50388094 -2.74805953 -3.65464422 -0.94750035 0 0 Z " fill="#F5F5F5" transform="translate(243,232)"/>
<path d="M0 0 C0.66 0.33 1.32 0.66 2 1 C1.01 2.485 1.01 2.485 0 4 C0.474375 4.33 0.94875 4.66 1.4375 5 C3.85791615 8.09813267 3.68198917 11.12026792 4 15 C0.64 18 0.64 18 -2.0625 18 C-4.88304707 16.54423377 -5.70057117 14.85874343 -7 12 C-7.625 9.625 -7.625 9.625 -7 7 C-4.85718216 4.44674192 -2.49357339 2.20732135 0 0 Z " fill="#EAEAEA" transform="translate(69,230)"/>
<path d="M0 0 C0.495 1.485 0.495 1.485 1 3 C1.99 3.33 2.98 3.66 4 4 C-1.20449726 8.86872325 -6.40773535 10.89529273 -13.484375 11.1015625 C-25.14536133 10.58493652 -25.14536133 10.58493652 -30 6 C-30.66 5.01 -31.32 4.02 -32 3 C-31.01 2.67 -30.02 2.34 -29 2 C-28.1028125 2.9590625 -28.1028125 2.9590625 -27.1875 3.9375 C-23.3927975 7.51536236 -19.59008709 7.27659956 -14.63671875 7.21875 C-9.42422598 6.78630616 -5.43143902 5.25250914 -1.5 1.8125 C-1.005 1.214375 -0.51 0.61625 0 0 Z " fill="#710404" transform="translate(174,245)"/>
<path d="M0 0 C2.4375 0.1875 2.4375 0.1875 5 1 C6.94039961 3.95335398 7.22756922 6.26264649 7.125 9.75 C7.10695312 10.54921875 7.08890625 11.3484375 7.0703125 12.171875 C7.03550781 13.07679688 7.03550781 13.07679688 7 14 C3.94736336 14.98120464 2.05263664 14.98120464 -1 14 C-1.02685938 11.85423363 -1.04633088 9.70837355 -1.0625 7.5625 C-1.07410156 6.36753906 -1.08570313 5.17257813 -1.09765625 3.94140625 C-1 1 -1 1 0 0 Z " fill="#412A2A" transform="translate(182,229)"/>
<path d="M0 0 C0.33 0.66 0.66 1.32 1 2 C-0.423125 2.7734375 -0.423125 2.7734375 -1.875 3.5625 C-5.614517 6.47932326 -6.1216227 8.43243804 -7 13 C-9.97 12.505 -9.97 12.505 -13 12 C-12.67 11.01 -12.34 10.02 -12 9 C-12.66 9 -13.32 9 -14 9 C-14 6.36 -14 3.72 -14 1 C-13.2575 1.20625 -12.515 1.4125 -11.75 1.625 C-7.56297206 2.19595836 -4.45619828 -0.24756657 0 0 Z " fill="#0C0C0C" transform="translate(217,234)"/>
<path d="M0 0 C2.73167372 0.21012875 4.45917099 0.58150136 6.640625 2.26953125 C8.3759302 4.47855482 8.37274558 5.71943476 8.3125 8.5 C8.30863281 9.2734375 8.30476562 10.046875 8.30078125 10.84375 C8 13 8 13 6 16 C5.34 16 4.68 16 4 16 C3.73445312 15.24074219 3.46890625 14.48148438 3.1953125 13.69921875 C2.84210938 12.70535156 2.48890625 11.71148437 2.125 10.6875 C1.77695313 9.70136719 1.42890625 8.71523437 1.0703125 7.69921875 C0.04694076 4.84405623 0.04694076 4.84405623 -2 2 C-1.34 1.34 -0.68 0.68 0 0 Z " fill="#FAFAFA" transform="translate(186,225)"/>
<path d="M0 0 C0.99 0.33 1.98 0.66 3 1 C3.33 3.97 3.66 6.94 4 10 C1.69 10.66 -0.62 11.32 -3 12 C-4.5625 10.8125 -4.5625 10.8125 -6 9 C-6 5.36141255 -5.21259786 4.21259786 -2.625 1.625 C-1.325625 0.820625 -1.325625 0.820625 0 0 Z " fill="#EAEAEA" transform="translate(216,236)"/>
<path d="M0 0 C1 6.625 1 6.625 1 10 C-1.35438733 11.42944945 -2.48032433 12.08661261 -5.25 11.625 C-5.8275 11.41875 -6.405 11.2125 -7 11 C-7.875 8.3125 -7.875 8.3125 -8 5 C-5.93611878 2.39829956 -3.46710718 0 0 0 Z " fill="#ECECEC" transform="translate(111,236)"/>
<path d="M0 0 C1.32 0.33 2.64 0.66 4 1 C3.01 1 2.02 1 1 1 C1 1.66 1 2.32 1 3 C2.32 3.33 3.64 3.66 5 4 C5 4.66 5 5.32 5 6 C5.33 6.66 5.66 7.32 6 8 C4.68 8 3.36 8 2 8 C1.84850702 11.62885324 1.84850702 11.62885324 3 15 C0.6875 14.9375 0.6875 14.9375 -2 14 C-4.125 10.875 -4.125 10.875 -5 7 C-3.74356157 4.28209762 -2.03486194 2.18068266 0 0 Z " fill="#A08000" transform="translate(238,173)"/>
<path d="M0 0 C0.625 3.375 0.625 3.375 1 7 C0.34 7.66 -0.32 8.32 -1 9 C-1.99 10.485 -1.99 10.485 -3 12 C-6.875 11.125 -6.875 11.125 -8 10 C-7.875 6.625 -7.875 6.625 -7 3 C-4.58235424 1.07828158 -3.11532786 0 0 0 Z " fill="#ECECEC" transform="translate(252,236)"/>
<path d="M0 0 C2.5 0.25 2.5 0.25 4.5 2.25 C5.08098308 7.39585012 5.08098308 7.39585012 4.5 10.25 C2 12.75 2 12.75 -0.5 14.25 C-1.16 13.59 -1.82 12.93 -2.5 12.25 C-1.84 12.25 -1.18 12.25 -0.5 12.25 C-1.50193437 8.45696275 -2.31024227 5.53463659 -4.5 2.25 C-2.5 0.25 -2.5 0.25 0 0 Z " fill="#F2F2F2" transform="translate(270.5,230.75)"/>
<path d="M0 0 C4.875 1.875 4.875 1.875 6 3 C6.42400881 8.25770925 6.42400881 8.25770925 6 11 C4 13 4 13 2 14 C1.80664062 13.45730469 1.61328125 12.91460937 1.4140625 12.35546875 C1.15367188 11.64003906 0.89328125 10.92460937 0.625 10.1875 C0.36976562 9.47980469 0.11453125 8.77210938 -0.1484375 8.04296875 C-1.0265769 5.75226641 -1.0265769 5.75226641 -3 3 C-2.01 2.01 -1.02 1.02 0 0 Z " fill="#F3F3F3" transform="translate(71,230)"/>
<path d="M0 0 C1.21516636 1.82274953 2.39331792 3.6719181 3.5 5.5625 C4.9097645 8.06417819 4.9097645 8.06417819 7 10 C5.75 11.5625 5.75 11.5625 4 13 C1.20714674 12.91272334 0.22325154 12.22325154 -1.75 10.25 C-3.25565766 7.53981621 -3.47012267 6.05579737 -3 3 C-1.5 1.1875 -1.5 1.1875 0 0 Z " fill="#F9F8F8" transform="translate(151,235)"/>
<path d="M0 0 C0.66 2.31 1.32 4.62 2 7 C2.99 7 3.98 7 5 7 C3.63016497 10.16115776 3.0109362 10.9927092 0 13 C-2 12 -2 12 -4 10 C-4.56215006 7.10640654 -4.33388082 5.00492736 -4 2 C-1 0 -1 0 0 0 Z " fill="#F5F5F5" transform="translate(134,235)"/>
<path d="M0 0 C0.66 0.33 1.32 0.66 2 1 C2 3.64 2 6.28 2 9 C-0.35438733 10.42944945 -1.48032433 11.08661261 -4.25 10.625 C-4.8275 10.41875 -5.405 10.2125 -6 10 C-5.49477778 5.62140745 -2.82172778 3.18348776 0 0 Z " fill="#EFEFEF" transform="translate(234,245)"/>
<path d="M0 0 C4.17892716 5.22365895 4.6510675 5.81485873 4 12 C3 15.4375 3 15.4375 2 18 C1.34 18 0.68 18 0 18 C0 12.06 0 6.12 0 0 Z " fill="#080303" transform="translate(145,224)"/>
<path d="M0 0 C1.2065625 0.0309375 1.2065625 0.0309375 2.4375 0.0625 C2.4375 2.3725 2.4375 4.6825 2.4375 7.0625 C0.4575 8.0525 0.4575 8.0525 -1.5625 9.0625 C-3.71059171 5.84036243 -3.85636153 4.78474599 -3.5625 1.0625 C-2.5625 0.0625 -2.5625 0.0625 0 0 Z " fill="#171717" transform="translate(137.5625,233.9375)"/>
<path d="M0 0 C1.875 0.25 1.875 0.25 4 1 C5.66519519 1.34060811 7.33157466 1.67558396 9 2 C6.59563974 5.60654039 5.05320393 5.85452932 1 7 C-0.32 5.68 -1.64 4.36 -3 3 C-1.75 1.4375 -1.75 1.4375 0 0 Z " fill="#E1E1E1" transform="translate(205,230)"/>
<path d="M0 0 C3.875 0.875 3.875 0.875 5 2 C5.04092937 4.33297433 5.04241723 6.66705225 5 9 C4.01 9 3.02 9 2 9 C-0.29013653 5.5647952 -0.17842973 4.014669 0 0 Z " fill="#202020" transform="translate(231,234)"/>
<path d="M0 0 C0.66 0.33 1.32 0.66 2 1 C-0.23407889 4.35111834 -1.26215824 5.81553956 -5.25 6.8125 C-6.61125 6.9053125 -6.61125 6.9053125 -8 7 C-8.66 5.68 -9.32 4.36 -10 3 C-9.34 2.34 -8.68 1.68 -8 1 C-6 1.33333333 -4 1.66666667 -2 2 C-1.34 1.34 -0.68 0.68 0 0 Z " fill="#E0E0E0" transform="translate(97,230)"/>
<path d="M0 0 C1.9375 0.5625 1.9375 0.5625 4 2 C4.75 5.625 4.75 5.625 5 9 C3.125 8.75 3.125 8.75 1 8 C-0.3125 6.1875 -0.3125 6.1875 -1 4 C-0.625 1.75 -0.625 1.75 0 0 Z " fill="#4D4444" transform="translate(153,234)"/>
<path d="M0 0 C0.66 0.66 1.32 1.32 2 2 C1.67 2.99 1.34 3.98 1 5 C0.01 4.34 -0.98 3.68 -2 3 C-2.33 3.66 -2.66 4.32 -3 5 C-10.92 4.67 -18.84 4.34 -27 4 C-27 3.67 -27 3.34 -27 3 C-18.09 2.67 -9.18 2.34 0 2 C0 1.34 0 0.68 0 0 Z " fill="#590A0A" transform="translate(200,193)"/>
<path d="M0 0 C3.375 4.5 3.375 4.5 3.1875 8.75 C3.16042969 9.54921875 3.13335937 10.3484375 3.10546875 11.171875 C3.07066406 11.77515625 3.03585938 12.3784375 3 13 C1.68 12.34 0.36 11.68 -1 11 C-0.67 7.37 -0.34 3.74 0 0 Z " fill="#1C1C1C" transform="translate(194,231)"/>
<path d="M0 0 C3.875 1.875 3.875 1.875 5 3 C5.04080783 4.99958364 5.04254356 7.00045254 5 9 C4.01 9 3.02 9 2 9 C0.14223235 5.86501708 -0.20140476 3.62528568 0 0 Z " fill="#0F0F0F" transform="translate(265,234)"/>
<path d="M0 0 C2.64 0.33 5.28 0.66 8 1 C7.01 2.32 6.02 3.64 5 5 C2.69 4.67 0.38 4.34 -2 4 C-1.34 2.68 -0.68 1.36 0 0 Z " fill="#F8F8F8" transform="translate(54,224)"/>
<path d="M0 0 C1.98362069 2.91708924 1.9876191 4.12380904 1.625 7.75 C1.41875 8.8225 1.2125 9.895 1 11 C-0.65 9.35 -2.3 7.7 -4 6 C-2.68 4.02 -1.36 2.04 0 0 Z " fill="#E2B200" transform="translate(237,174)"/>
<path d="M0 0 C3.875 1.875 3.875 1.875 5 3 C5.04080783 4.99958364 5.04254356 7.00045254 5 9 C3.0625 8.4375 3.0625 8.4375 1 7 C0.25 3.375 0.25 3.375 0 0 Z " fill="#0D0D0D" transform="translate(67,234)"/>
<path d="M0 0 C1.99954746 -0.04254356 4.00041636 -0.04080783 6 0 C7 1 7 1 7.0625 4.0625 C7.041875 5.031875 7.02125 6.00125 7 7 C4.13302508 5.71480435 2.02392288 4.42870746 0 2 C0 1.34 0 0.68 0 0 Z " fill="#EDBA00" transform="translate(239,174)"/>
<path d="M0 0 C1.95582488 2.93373731 3.56224304 5.78216298 5 9 C4.67 9.66 4.34 10.32 4 11 C2.68 10.34 1.36 9.68 0 9 C0 6.03 0 3.06 0 0 Z " fill="#352121" transform="translate(88,196)"/>
<path d="M0 0 C2.39456443 2.39456443 2.75546876 3.65807308 3 7 C1.5625 8.8125 1.5625 8.8125 0 10 C-0.66 8.68 -1.32 7.36 -2 6 C-1.34 6 -0.68 6 0 6 C0 4.02 0 2.04 0 0 Z " fill="#AE8A00" transform="translate(246,175)"/>
<path d="M0 0 C0.66 0.33 1.32 0.66 2 1 C2 2.98 2 4.96 2 7 C1.01 7 0.02 7 -1 7 C-1.625 5.1875 -1.625 5.1875 -2 3 C-1.34 2.01 -0.68 1.02 0 0 Z " fill="#7E7E7E" transform="translate(234,245)"/>
<path d="M0 0 C0.66 0 1.32 0 2 0 C2 1.65 2 3.3 2 5 C0.68 5 -0.64 5 -2 5 C-1.125 1.125 -1.125 1.125 0 0 Z " fill="#282828" transform="translate(217,238)"/>
<path d="M0 0 C0.66 0 1.32 0 2 0 C2 1.65 2 3.3 2 5 C0.68 5 -0.64 5 -2 5 C-1.125 1.125 -1.125 1.125 0 0 Z " fill="#2A2A2A" transform="translate(110,238)"/>
<path d="M0 0 C-0.33 1.32 -0.66 2.64 -1 4 C-2.65 3.67 -4.3 3.34 -6 3 C-6 2.34 -6 1.68 -6 1 C-4 0 -4 0 0 0 Z " fill="#DCAD00" transform="translate(246,184)"/>
<path d="M0 0 C0.66 0 1.32 0 2 0 C2 1.65 2 3.3 2 5 C1.01 5.33 0.02 5.66 -1 6 C-1.625 4.125 -1.625 4.125 -2 2 C-1.34 1.34 -0.68 0.68 0 0 Z " fill="#292929" transform="translate(251,238)"/>
<path d="M0 0 C0.66 0.33 1.32 0.66 2 1 C1.67 1.99 1.34 2.98 1 4 C-2.5625 5.6875 -2.5625 5.6875 -6 7 C-4.60667426 3.63279613 -3.0210714 2.0140476 0 0 Z " fill="#DADADA" transform="translate(137,230)"/>
<path d="M0 0 C0.66 0.33 1.32 0.66 2 1 C1.67 1.99 1.34 2.98 1 4 C-1.5625 5.1875 -1.5625 5.1875 -4 6 C-2.84826645 3.53199953 -1.95216435 1.95216435 0 0 Z " fill="#D5D5D5" transform="translate(253,222)"/>
<path d="M0 0 C2.31 1.65 4.62 3.3 7 5 C5.68 5.33 4.36 5.66 3 6 C0 2.25 0 2.25 0 0 Z " fill="#AB8700" transform="translate(234,182)"/>
</svg>
